<?xml version="1.0" encoding="utf-8"?>
<!-- Generator: Adobe Illustrator 27.0.1, SVG Export Plug-In . SVG Version: 6.00 Build 0)  -->
<svg version="1.1" id="Layer_1" xmlns="http://www.w3.org/2000/svg" xmlns:xlink="http://www.w3.org/1999/xlink" x="0px" y="0px"
	 viewBox="0 0 256 256" style="enable-background:new 0 0 256 256;" xml:space="preserve">
<style type="text/css">
	.st0{fill:#72BE44;}
	.st1{fill:#9D2E35;}
	.st2{fill:#056A38;}
	.st3{fill:#006C3B;}
	.st4{fill:#FEFCE8;}
	.st5{fill:none;}
	.st6{fill:#CACABD;}
	.st7{fill:#AFA963;}
	.st8{fill:#EEE9BB;}
	.st9{fill:#C8C59E;}
	.st10{opacity:0.36;fill:#CACABD;}
</style>
<g>
	<polygon class="st0" points="128.51,204.72 128.51,204.72 128.51,204.72 	"/>
	<circle class="st1" cx="128" cy="128.16" r="127.84"/>
	<g>
		<path class="st2" d="M131.37,158.11v-0.02h0C131.37,158.1,131.37,158.11,131.37,158.11z"/>
	</g>
	<circle class="st1" cx="128" cy="128.16" r="114.19"/>
	<circle class="st3" cx="97.38" cy="126.17" r="83.65"/>
	<g>
		<path class="st4" d="M53.85,181.72c4.6,6.35,10,12.1,16.05,17.08c40.79-17.56,86.05-22.26,129.69-13.71
			c2.19-2.75,4.22-5.62,6.09-8.61C156.88,159.26,102.61,160.8,53.85,181.72z"/>
		<path class="st4" d="M78.11,204.84c9.47,6.18,20.15,10.66,31.6,13c17.38-3.8,35.18-5.47,53-5c7.09-2.92,13.75-6.7,19.82-11.22
			C148.3,193.87,112.34,194.88,78.11,204.84z"/>
		<path class="st5" d="M205.67,176.49c3.81-6.1,6.92-12.69,9.23-19.63c-55.28-14.95-114.38-8.1-164.52,19.72
			c1.1,1.76,2.26,3.47,3.47,5.14C102.61,160.8,156.88,159.26,205.67,176.49z"/>
		<path class="st5" d="M217.09,149.1c1.58-6.73,2.42-13.74,2.42-20.94c0-50.46-41.05-91.51-91.51-91.51
			c-50.46,0-91.51,41.05-91.51,91.51c0,9.72,1.53,19.08,4.35,27.87C96.55,127.49,161.16,125.51,217.09,149.1z"/>
		<path class="st5" d="M69.9,198.81c2.62,2.16,5.36,4.17,8.21,6.03c34.24-9.96,70.2-10.96,104.41-3.22
			c6.38-4.75,12.12-10.3,17.07-16.52C155.94,176.54,110.68,181.24,69.9,198.81z"/>
		<path class="st5" d="M109.7,217.83c5.91,1.21,12.03,1.84,18.3,1.84c12.28,0,23.99-2.44,34.7-6.84
			C144.88,212.36,127.08,214.04,109.7,217.83z"/>
		<path class="st3" d="M223.23,191.09c-7.8-2.44-15.69-4.44-23.64-6c-4.95,6.21-10.69,11.77-17.07,16.52
			c8.73,1.98,17.34,4.52,25.79,7.64C213.87,203.74,218.88,197.65,223.23,191.09z"/>
		<path class="st3" d="M128,219.67c-6.27,0-12.38-0.63-18.3-1.84c-12.09,2.64-23.98,6.31-35.54,11
			c16.05,8.62,34.38,13.51,53.84,13.51c27.15,0,52.11-9.53,71.72-25.41c-12.26-2.41-24.65-3.78-37.03-4.1
			C151.99,217.24,140.28,219.67,128,219.67z"/>
		<path class="st3" d="M69.9,198.81c-7.42,3.2-14.69,6.81-21.78,10.86c1.52,1.49,3.07,2.93,4.67,4.33
			c8.3-3.61,16.75-6.67,25.32-9.16C75.26,202.98,72.51,200.97,69.9,198.81z"/>
		<path class="st3" d="M35.64,190.59c5.97-3.27,12.04-6.21,18.21-8.86c-1.21-1.67-2.37-3.39-3.47-5.14
			c-5.31,2.95-10.52,6.12-15.61,9.54c-2.24,1.51-3.96,0.36-3.87-2.64c0.17-5.66,0.33-11.33,0.5-16.99c0.09-3,1.98-6.48,4.25-7.71
			c1.72-0.94,3.45-1.85,5.19-2.74c-2.82-8.79-4.35-18.16-4.35-27.87c0-50.46,41.05-91.51,91.51-91.51
			c50.46,0,91.51,41.05,91.51,91.51c0,7.2-0.84,14.21-2.42,20.94c7.08,2.98,14.02,6.38,20.78,10.18c2.81-9.9,4.31-20.34,4.31-31.12
			c0-62.96-51.22-114.19-114.19-114.19S13.81,65.2,13.81,128.16c0,23.79,7.32,45.9,19.81,64.21
			C34.23,191.61,34.92,190.98,35.64,190.59z"/>
		<path class="st3" d="M205.67,176.49c7.18,2.54,14.24,5.48,21.15,8.82c3.91-6.74,7.15-13.92,9.64-21.44
			c-7.1-2.72-14.3-5.06-21.56-7.02C212.6,163.81,209.49,170.39,205.67,176.49z"/>
		<path class="st3" d="M35.64,158.77c-2.27,1.23-4.16,4.71-4.25,7.71c-0.17,5.66-0.33,11.33-0.5,16.99c-0.09,3,1.63,4.15,3.87,2.64
			c5.09-3.42,10.3-6.59,15.61-9.54c-3.99-6.37-7.21-13.26-9.55-20.55C39.09,156.92,37.36,157.83,35.64,158.77z"/>
		<path class="st3" d="M214.9,156.86c7.26,1.96,14.46,4.3,21.56,7.02c0.5-1.52,0.98-3.05,1.42-4.6c-6.76-3.8-13.7-7.2-20.78-10.18
			C216.47,151.73,215.74,154.32,214.9,156.86z"/>
		<path class="st3" d="M199.59,185.1c7.95,1.56,15.84,3.56,23.64,6c1.25-1.89,2.45-3.81,3.59-5.78c-6.91-3.35-13.97-6.29-21.15-8.82
			C203.81,179.48,201.77,182.35,199.59,185.1z"/>
		<path class="st3" d="M53.85,181.72c-6.16,2.65-12.24,5.59-18.21,8.86c-0.73,0.39-1.41,1.02-2.01,1.79
			c4.26,6.24,9.11,12.03,14.49,17.29c7.09-4.04,14.36-7.66,21.78-10.86C63.85,193.83,58.45,188.08,53.85,181.72z"/>
		<path class="st3" d="M78.11,204.84c-8.57,2.49-17.03,5.54-25.32,9.16c6.52,5.72,13.68,10.7,21.38,14.84
			c11.55-4.69,23.45-8.36,35.54-11C98.25,215.5,87.57,211.02,78.11,204.84z"/>
		<path class="st3" d="M162.7,212.83c12.38,0.33,24.77,1.69,37.03,4.1c2.99-2.42,5.85-4.98,8.58-7.68
			c-8.44-3.11-17.06-5.66-25.79-7.64C176.44,206.14,169.79,209.92,162.7,212.83z"/>
	</g>
	<g>
		<path class="st4" d="M153.74,133.58c-38.21-3.15-77.36,4.25-112.9,22.45c2.34,7.29,5.56,14.18,9.55,20.55
			c31.97-17.74,67.59-26.94,103.54-27.41c-1.39-2.39-2.18-5.09-2.18-7.95C151.74,138.48,152.46,135.89,153.74,133.58z"/>
		<path class="st4" d="M217.09,149.1c-7.98-3.36-16.13-6.21-24.42-8.53c0.01,0.21,0.02,0.43,0.02,0.65c0,3.82-1.41,7.36-3.79,10.25
			c8.72,1.27,17.4,3.07,25.99,5.39C215.74,154.32,216.47,151.73,217.09,149.1z"/>
		<path class="st4" d="M192.68,140.57c-12.74-3.57-25.79-5.91-38.94-6.99c-1.28,2.31-2,4.9-2,7.64c0,2.86,0.79,5.56,2.18,7.95
			c11.67-0.15,23.37,0.6,34.99,2.3c2.38-2.89,3.79-6.43,3.79-10.25C192.7,141,192.69,140.79,192.68,140.57z"/>
	</g>
	<g>
		<path class="st4" d="M185.5,138.4c0.71-10.56-6.08-13.75-6.14-13.78c-2.22-0.72-4.63-1.11-7.14-1.11
			c-8.15,0-15.18,4.11-18.48,10.07c13.15,1.08,26.19,3.42,38.94,6.99L185.5,138.4z"/>
		<path class="st4" d="M192.57,139.37l0.1,1.2C192.66,140.17,192.62,139.77,192.57,139.37z"/>
		<path class="st6" d="M185.5,138.4l7.18,2.17l-0.1-1.2c-0.82-6.79-6.07-12.45-13.22-14.75C179.42,124.65,186.21,127.84,185.5,138.4
			z"/>
	</g>
	<path class="st4" d="M172.75,59.41"/>
	<path class="st4" d="M172.22,59.41"/>
	<g>
		<path class="st5" d="M185.47,76.41c-1.57-4.39-4.15-8.09-6.62-10.9v10.9H185.47z"/>
		<path class="st4" d="M185.47,76.41h-6.62V65.5c-3.42-3.89-6.63-6.09-6.63-6.09h-3.95c-1.48,0-2.67,1.35-2.67,3.01v13.98h-14.71
			c-1.48,0-2.67,1.35-2.67,3.01v8.91c0,1.66,1.2,3.01,2.67,3.01h14.71v37.79c0,1.66,1.2,3.01,2.67,3.01h7.91
			c1.48,0,2.67-1.35,2.67-3.01V91.34h7.17C187.57,85.8,187.02,80.76,185.47,76.41z"/>
		<path class="st6" d="M176.17,59.41h-3.95l6.48,2.06C178.34,60.28,177.35,59.41,176.17,59.41z"/>
		<path class="st6" d="M178.84,65.5v-3.08c0-0.33-0.06-0.65-0.15-0.95l-6.48-2.06C172.22,59.41,175.42,61.61,178.84,65.5z"/>
		<path class="st6" d="M196.23,88.33v-8.91c0-1.66-1.2-3.01-2.67-3.01h-8.09c1.55,4.36,2.11,9.4,0.55,14.94h7.54
			C195.03,91.34,196.23,89.99,196.23,88.33z"/>
	</g>
	<g>
		<g>
			<ellipse class="st7" cx="102.07" cy="115.35" rx="51.47" ry="51.68"/>
			<path class="st4" d="M75.36,75.36c1.49,1.18-0.44,1.62-2.5,3.18c-16.43,12.41-14.97,38.98-13.72,45
				c0.78,3.75-0.24,4.12-3.72,5.76c-0.62,0.29-1.23-0.44-1.44-1.27c-1.05-4.05-1.59-8.33-1.59-12.79c0-16.47,8.02-31.07,20.37-40.1
				c0.75-0.56,1.2-0.62,1.71-0.29C74.63,74.95,74.99,75.06,75.36,75.36z"/>
			<path class="st4" d="M116.7,162.69c8.64-2.67,17.02-8.3,22.93-14.85c0.47-1.01-2.68,1.94-4.64,2.93
				c-7.7,3.88-10.77,3.78-12.41,5.28c-1.64,1.5-3.07,3.14-6.31,5.33C114.53,162.56,115.28,163.26,116.7,162.69"/>
			<path class="st4" d="M112.74,162.84c10.63-7.31,13.06-11.32,16.68-18.7c0.82-1.67,2.26-6.14,0.48-7.7
				c-1.36-1.2-8.36-7.17-9.79-7.6c-1.43-0.43-1.67,0.96-3.58,4.84c-4.67,9.47-17.07,21.3-29.29,27.69
				c-1.01,0.53-0.51,1.18,0.58,1.46c4.51,1.35,9.29,2.07,14.24,2.07c2.71,0,5.39-0.18,6.7-0.45
				C110.04,164.17,111.49,163.7,112.74,162.84z"/>
			<path class="st4" d="M55.95,130.06c11.25-5.74,18.2-9.78,21.78-14.01c3.47-4.11,6.33-3.16,7.76-2.73
				c1.43,0.43,11.77,3.07,13.05,4.35c1.28,1.28,1.05,3.56,0.14,5.17c-3.21,5.71-21.97,21.21-30.27,24.67
				c-2.22,0.92-2.96,1.2-3.94,0.22c-3.96-4.49-7.04-9.59-9.1-15.2C55.02,131.32,54.93,130.58,55.95,130.06z"/>
			<path class="st4" d="M86.45,160.45c18.65-10.97,27.36-22.15,30.28-29.87c0.66-1.73,1.21-3.21-0.57-4.78
				c-1.36-1.2-10.77-5.74-12.2-6.17c-1.43-0.43-1.65-0.93-3.92,2.75c-5.19,8.38-19.12,20.81-31.1,26.54
				c-0.61,0.29-2.57,0.93-1.65,1.79c4.71,4.61,9.9,8.12,16.13,10.58C84.47,161.67,85.94,160.75,86.45,160.45z"/>
			<path class="st4" d="M143.7,113.7c-13.62-13.25-40.37-23.64-59.14-25.57c-3.07-0.32-3.43,1.3-4.42,3.44
				c-0.84,1.8-2.5,8.91-2.46,13.09c0.02,2.57-0.12,5.51,2.98,6.05c12.72,2.23,36.31,11.77,47.17,22.12c3.22,3.07,4.32,3,7.17,0
				c3.44-3.62,7.72-8.47,8.86-10.61C145,120.07,146.88,116.8,143.7,113.7z"/>
			<path class="st4" d="M144.9,91.59c-12.08-11.82-25.01-17.79-43.78-19.72c-3.07-0.32-6.35-0.86-9.35,2.28
				c-1.56,1.63-7.7,8.24-7.56,10.81c0.14,2.57,3.75,2.16,9.74,3.6c12.36,2.98,32.8,9.51,46.71,20.82c6.65,5.41,6.53,8.05,7.92,6.82
				c1.34-1.18,2.82-4.4,2.76-6.97C151.28,106.81,148.07,94.7,144.9,91.59z"/>
			<path class="st4" d="M90.3,74.21c-4.85,5.33-15.31,14.19-14.15,34.67c0.2,3.43,6.28,1.92-2.12,9.09
				c-1.78,1.52-7.64,5.11-10.27,6.37c-3.63,1.74-3.32,0.48-3.96-4.44c-0.66-5.09-0.59-32,15.32-41.63c1.94-1.18,3.3-1.77,5.3-2.55
				c2-0.78,4.99-2,8.42-3.07C92.27,71.58,92.25,72.07,90.3,74.21z"/>
			<path class="st4" d="M151.69,115.24c0,10.03-3.03,19.24-8.15,27.05c-3.25,4.89-10.55,9.07-16.89,10.76
				c-1.15,0.31-0.08-1.02,1.32-3.35c1.96-3.27,4.04-8.48,4.23-10.83c0.14-1.71,1.36-1.99,2.84-3.31
				c4.98-4.44,12.91-13.45,15.69-20.42C151.01,114.42,151.87,111,151.69,115.24z"/>
			<path class="st4" d="M144.84,89.63c-8.78-14.51-24.61-24.04-42.8-24.04c-0.31,0-0.62,0-0.93,0.01c-2.12-0.04-2.71,0.63-3.64,2.24
				c-1.23,2.13-1.55,2.94,0,2.96c5.37,0.06,26.14,0.76,44.3,16.19C142.49,87.6,145.32,90.43,144.84,89.63z"/>
			<path class="st4" d="M96.72,67.09c-1.04,2.44-1.1,3.5-3.77,3.77c-2.49,0.25-10.42,2.75-13.5,4.22c-3,1.43-2.02,0.84-4.03-0.58
				c-0.9-0.63,0.37-1.43,0.88-1.73c5.25-3.14,11.11-5.39,17.37-6.47C94.94,66.09,97.37,65.59,96.72,67.09z"/>
			<path class="st8" d="M60.88,138.93c1.79,2.75,2.7,4.43,4.56,5.42c1.85,1,3.86,0.35,6.21-1.07c2.35-1.43,11.11-6.96,18.17-14.02
				c4.71-4.71,1.59-3.15-0.45-1.11c-2.47,2.48-15.67,12.1-19.8,13.55c-3.14,1.11-5.32-1.31-6.85-3.6
				C60.04,134.08,58.56,135.36,60.88,138.93z"/>
			<path class="st8" d="M78.57,155.58c1.08,1.2,1.82,1.71,3.67,2.71c1.85,1,4.24-0.27,5.85-1.18c2.4-1.35,10.44-6.93,17.41-14.09
				c2.68-2.75,1.46-2.58-0.57-0.54c-2.47,2.48-12.22,10.56-18.25,12.72c-3.13,1.12-4.9,1.48-6.9-0.42
				C77.83,152.95,77.03,153.87,78.57,155.58z"/>
			<path class="st9" d="M64.52,93.91c-1.87,4.83-4.45,14.09-2.78,26.52c0.4,3,1.82,1.73,3.03,1.16c1.21-0.57,5.74-4.32-0.38-2.26
				c-2.82,0.95-2.04-18.95,0.81-25.49C66.83,90.08,65.41,91.61,64.52,93.91z"/>
			<path class="st8" d="M102.53,162.88c6.63,1.21,12.89-4.32,16.81-8.68c2.62-2.92,1.62-2.67-0.64-0.43
				c-2.74,2.72-7.67,7.58-14.67,6.79C99.68,160.07,98.33,162.11,102.53,162.88z"/>
			<path class="st9" d="M79.98,100.05c-1.31,3.67-1.2,6.76,4.8,8.42c7.76,2.14,23.42,6.85,37.9,16.25c7.81,5.07,4.18,2.76,0.48-0.64
				c-8.56-7.87-33.97-15.86-37.72-17.71c-1.95-0.96-5.41-1.76-3.56-6.18C82.84,97.89,81.23,96.54,79.98,100.05z"/>
			<path class="st9" d="M92.02,78.55c-2.15,2.95-2.32,6.18,3.74,7.59c8.74,2.03,24.88,6.97,39.59,15.98
				c0.52,0.32,0.7-0.18,0.43-0.43c-8.53-7.9-32.68-15.55-38.36-17.26c-4.08-1.23-5.3-1.35-3.64-5.3
				C94.74,76.83,94.22,75.54,92.02,78.55z"/>
			<path class="st8" d="M134.11,141.67c0.27-0.81-0.18-0.73-0.54,0.1c-1.11,2.53-2.08,4.36-2.71,6.1c-0.38,1.05,0.57,1.51,1.34,1.23
				c2.05-0.74,3.56-1.49,5.04-2.46c0.33-0.22,0.64-0.69-0.13-0.29c-1.56,0.8-4.37,2.18-4.71,0.84
				C132.18,146.38,133.61,143.19,134.11,141.67z"/>
		</g>
		<path class="st10" d="M129.85,71.67c5.94,6.48,10.3,14.57,12.27,23.79c5.89,27.56-11.68,54.67-39.23,60.56
			c-15.57,3.33-30.99-0.83-42.53-10.05c11.7,15.83,31.94,24.26,52.44,19.88c27.94-5.97,45.75-33.47,39.78-61.41
			C149.57,90.36,141.09,78.86,129.85,71.67z"/>
	</g>
</g>
</svg>
