<?xml version="1.0" encoding="utf-8"?>
<!-- Generator: Adobe Illustrator 27.0.1, SVG Export Plug-In . SVG Version: 6.00 Build 0)  -->
<svg version="1.1" id="Layer_1" xmlns="http://www.w3.org/2000/svg" xmlns:xlink="http://www.w3.org/1999/xlink" x="0px" y="0px"
	 viewBox="0 0 254.43 254.43" style="enable-background:new 0 0 254.43 254.43;" xml:space="preserve">
<style type="text/css">
	.st0{fill:#72BE44;}
	.st1{fill:#FEFCE8;}
	.st2{fill:#9D2E35;}
	.st3{fill:#056A38;}
	.st4{fill:#006C3B;}
	.st5{fill:none;}
	.st6{fill:#CACABD;}
	.st7{fill:#AFA963;}
	.st8{fill:#EEE9BB;}
	.st9{fill:#C8C59E;}
	.st10{opacity:0.36;fill:#CACABD;}
</style>
<g>
	<polygon class="st0" points="254.43,173.46 254.43,173.46 254.43,173.46 	"/>
	<polygon class="st0" points="127.63,190.41 127.63,190.41 127.63,190.41 	"/>
	<path class="st1" d="M0,127.21C0,56.96,56.96,0,127.21,0s127.21,56.96,127.21,127.21s-56.96,127.21-127.21,127.21
		S0,197.47,0,127.21"/>
	<circle class="st2" cx="127.21" cy="127.21" r="115.95"/>
	<g>
		<path class="st3" d="M129.99,151.94v-0.02h0C129.99,151.92,129.99,151.93,129.99,151.94z"/>
	</g>
	<circle class="st2" cx="127.21" cy="127.21" r="94.24"/>
	<circle class="st4" cx="101.94" cy="125.57" r="69.04"/>
	<g>
		<path class="st1" d="M66.01,171.42c3.8,5.25,8.25,9.99,13.24,14.1c33.66-14.5,71.02-18.38,107.04-11.31
			c1.81-2.27,3.48-4.64,5.02-7.1C151.05,152.88,106.26,154.15,66.01,171.42z"/>
		<path class="st1" d="M86.03,190.5c7.82,5.1,16.63,8.8,26.08,10.73c14.35-3.13,29.04-4.52,43.74-4.13
			c5.86-2.41,11.35-5.53,16.36-9.26C143.97,181.45,114.29,182.28,86.03,190.5z"/>
		<path class="st5" d="M191.32,167.1c3.15-5.04,5.72-10.47,7.61-16.21c-45.62-12.34-94.4-6.69-135.79,16.28
			c0.91,1.45,1.86,2.87,2.86,4.25C106.26,154.15,151.05,152.88,191.32,167.1z"/>
		<path class="st5" d="M200.75,144.5c1.3-5.55,2-11.34,2-17.28c0-41.65-33.88-75.53-75.53-75.53c-41.65,0-75.53,33.88-75.53,75.53
			c0,8.02,1.26,15.75,3.59,23C101.26,126.66,154.58,125.03,200.75,144.5z"/>
		<path class="st5" d="M79.26,185.52c2.16,1.78,4.42,3.44,6.78,4.98c28.26-8.22,57.94-9.05,86.18-2.66
			c5.27-3.92,10-8.51,14.09-13.63C150.28,167.15,112.92,171.03,79.26,185.52z"/>
		<path class="st5" d="M112.11,201.23c4.88,0.99,9.93,1.52,15.1,1.52c10.13,0,19.8-2.01,28.64-5.64
			C141.15,196.71,126.46,198.09,112.11,201.23z"/>
		<path class="st4" d="M205.81,179.16c-6.44-2.01-12.95-3.66-19.51-4.95c-4.09,5.13-8.83,9.72-14.09,13.63
			c7.21,1.63,14.32,3.73,21.28,6.3C198.09,189.59,202.22,184.57,205.81,179.16z"/>
		<path class="st4" d="M127.21,202.74c-5.17,0-10.22-0.52-15.1-1.52c-9.98,2.18-19.8,5.21-29.33,9.08
			c13.25,7.11,28.38,11.15,44.44,11.15c22.41,0,43.01-7.86,59.2-20.97c-10.12-1.99-20.34-3.12-30.56-3.39
			C147.01,200.73,137.35,202.74,127.21,202.74z"/>
		<path class="st4" d="M79.26,185.52c-6.12,2.64-12.13,5.62-17.98,8.96c1.25,1.23,2.53,2.42,3.85,3.57
			c6.85-2.98,13.83-5.5,20.9-7.56C83.68,188.96,81.42,187.3,79.26,185.52z"/>
		<path class="st4" d="M50.98,178.74c4.92-2.7,9.94-5.13,15.03-7.31c-1-1.38-1.95-2.8-2.86-4.25c-4.38,2.43-8.68,5.05-12.89,7.87
			c-1.85,1.25-3.27,0.3-3.2-2.18c0.14-4.67,0.28-9.35,0.41-14.02c0.07-2.48,1.63-5.35,3.51-6.37c1.42-0.78,2.85-1.53,4.28-2.26
			c-2.33-7.26-3.59-14.99-3.59-23c0-41.65,33.88-75.53,75.53-75.53c41.65,0,75.53,33.88,75.53,75.53c0,5.94-0.69,11.73-2,17.28
			c5.84,2.46,11.57,5.27,17.15,8.4c2.32-8.17,3.56-16.78,3.56-25.68c0-51.97-42.28-94.24-94.24-94.24s-94.24,42.28-94.24,94.24
			c0,19.64,6.04,37.89,16.35,53C49.82,179.58,50.38,179.06,50.98,178.74z"/>
		<path class="st4" d="M191.32,167.1c5.93,2.09,11.75,4.52,17.45,7.28c3.23-5.56,5.91-11.49,7.95-17.69
			c-5.86-2.24-11.8-4.17-17.79-5.79C197.04,156.63,194.47,162.07,191.32,167.1z"/>
		<path class="st4" d="M50.98,152.48c-1.87,1.02-3.43,3.89-3.51,6.37c-0.14,4.67-0.28,9.35-0.41,14.02
			c-0.07,2.48,1.35,3.43,3.2,2.18c4.2-2.82,8.5-5.44,12.89-7.87c-3.29-5.26-5.95-10.94-7.88-16.96
			C53.83,150.95,52.4,151.7,50.98,152.48z"/>
		<path class="st4" d="M198.94,150.9c5.99,1.62,11.93,3.55,17.79,5.79c0.41-1.25,0.81-2.52,1.17-3.79
			c-5.58-3.14-11.31-5.94-17.15-8.4C200.24,146.67,199.63,148.8,198.94,150.9z"/>
		<path class="st4" d="M186.3,174.21c6.56,1.29,13.07,2.94,19.51,4.95c1.03-1.56,2.02-3.15,2.97-4.77
			c-5.7-2.76-11.53-5.19-17.45-7.28C189.78,169.57,188.1,171.94,186.3,174.21z"/>
		<path class="st4" d="M66.01,171.42c-5.09,2.18-10.1,4.62-15.03,7.31c-0.6,0.33-1.17,0.84-1.66,1.47
			c3.51,5.15,7.52,9.93,11.96,14.27c5.85-3.34,11.85-6.32,17.98-8.96C74.26,181.41,69.81,176.67,66.01,171.42z"/>
		<path class="st4" d="M86.03,190.5c-7.07,2.06-14.05,4.58-20.9,7.56c5.38,4.72,11.29,8.84,17.65,12.25
			c9.54-3.87,19.35-6.9,29.33-9.08C102.66,199.3,93.85,195.6,86.03,190.5z"/>
		<path class="st4" d="M155.85,197.1c10.22,0.27,20.44,1.4,30.56,3.39c2.47-2,4.83-4.11,7.08-6.34c-6.97-2.57-14.08-4.67-21.28-6.3
			C167.2,191.57,161.71,194.69,155.85,197.1z"/>
	</g>
	<g>
		<path class="st1" d="M44.23,201.48l-0.98,0.88c-0.42-0.47-0.76-1.11-1-1.91c-0.09-0.3-0.16-0.5-0.21-0.61
			c-0.04-0.11-0.1-0.2-0.17-0.27c-0.1-0.11-0.2-0.18-0.29-0.21c-0.09-0.02-0.26-0.03-0.53-0.02c-0.22,0.01-0.38-0.04-0.49-0.16
			c-0.29-0.32-0.19-0.7,0.3-1.15l3.12-2.82c0.16-0.15,0.34-0.22,0.53-0.23c0.19-0.01,0.36,0.05,0.49,0.18
			c0.12,0.12,0.17,0.25,0.16,0.39s-0.09,0.33-0.24,0.55c-0.37,0.58-0.66,1.18-0.86,1.82c-0.2,0.64-0.3,1.25-0.3,1.85
			C43.76,200.4,43.92,200.97,44.23,201.48z M55.8,191.8l-0.98,0.89c-0.42-0.27-0.81-0.4-1.18-0.4c-0.37,0-0.7,0.13-1,0.4
			c-0.29,0.26-0.47,0.56-0.54,0.91s-0.05,0.78,0.07,1.31c0.09,0.36,0.33,1.13,0.72,2.31c0.24,0.72,0.4,1.3,0.48,1.74
			c0.08,0.45,0.09,0.92,0.05,1.41c-0.1,1.31-0.63,2.41-1.61,3.3c-0.74,0.67-1.57,1.09-2.52,1.28c-0.94,0.19-1.88,0.12-2.8-0.2
			c-0.49-0.18-0.98-0.42-1.45-0.73c-0.48-0.31-0.87-0.65-1.19-1l0.98-0.88c0.57,0.39,1.06,0.59,1.47,0.62
			c0.41,0.03,0.8-0.13,1.17-0.46c0.38-0.35,0.56-0.82,0.54-1.43c-0.02-0.4-0.18-1.04-0.48-1.94c-0.33-0.98-0.54-1.66-0.65-2.04
			c-0.1-0.38-0.18-0.77-0.22-1.17c-0.21-1.77,0.32-3.23,1.6-4.38c0.65-0.59,1.37-1,2.17-1.23s1.58-0.26,2.35-0.09
			C53.85,190.27,54.86,190.86,55.8,191.8z M55.43,193.37l0.94-0.85c0.29,0.36,0.51,0.7,0.67,1.01s0.36,0.78,0.58,1.42
			c0.06,0.16,0.12,0.27,0.19,0.34c0.1,0.11,0.21,0.15,0.33,0.14l0.42-0.04c0.21-0.02,0.37,0.03,0.49,0.16
			c0.14,0.15,0.19,0.32,0.14,0.49c-0.05,0.17-0.19,0.37-0.43,0.58l-2.82,2.56c-0.17,0.15-0.34,0.23-0.53,0.23
			c-0.19,0-0.35-0.07-0.49-0.22c-0.1-0.11-0.16-0.25-0.18-0.42c0-0.09,0.02-0.18,0.05-0.28s0.12-0.22,0.25-0.39
			c0.22-0.32,0.41-0.69,0.57-1.11c0.16-0.42,0.26-0.84,0.31-1.26C56.01,194.92,55.85,194.13,55.43,193.37z"/>
		<path class="st1" d="M54,206.54l5.78-6.97c0.17-0.21,0.26-0.39,0.27-0.54c0.01-0.08,0-0.15-0.02-0.19
			c-0.02-0.04-0.1-0.18-0.24-0.4c-0.17-0.27-0.16-0.53,0.04-0.77c0.13-0.15,0.28-0.22,0.46-0.21c0.18,0.02,0.38,0.11,0.59,0.29
			l0.23,0.19l3.96,3.29l0.23,0.19l0.29,0.3c0.08,0.11,0.11,0.24,0.12,0.37c0,0.13-0.04,0.25-0.13,0.36c-0.2,0.24-0.45,0.3-0.75,0.18
			c-0.25-0.1-0.4-0.15-0.44-0.16s-0.11-0.01-0.19,0.02c-0.15,0.04-0.31,0.16-0.48,0.36l-6.19,7.46c-0.42,0.5-0.7,0.87-0.83,1.09
			s-0.23,0.45-0.28,0.67c-0.05,0.21-0.05,0.39-0.01,0.53c0.04,0.14,0.16,0.37,0.36,0.67l-0.97,1.17l-0.2-0.16
			c-0.77-0.64-1.35-1.24-1.75-1.8c-0.47-0.66-0.79-1.33-0.98-2.02s-0.22-1.31-0.08-1.85C52.94,208.03,53.34,207.34,54,206.54z
			 M56.62,215.12l0.97-1.16c0.66,0.42,1.35,0.58,2.09,0.5c0.84-0.09,1.62-0.58,2.35-1.46l4.81-5.8c0.67-0.81,0.83-1.64,0.48-2.47
			c-0.1-0.25-0.16-0.43-0.16-0.54c0-0.11,0.05-0.24,0.16-0.37c0.13-0.15,0.27-0.22,0.44-0.19c0.17,0.03,0.38,0.15,0.63,0.36
			l2.18,1.81c0.18,0.15,0.3,0.26,0.36,0.32c0.05,0.06,0.1,0.13,0.13,0.22c0.08,0.22,0.06,0.4-0.07,0.56
			c-0.11,0.13-0.25,0.2-0.42,0.21c-0.05,0-0.25-0.02-0.58-0.08c-0.38-0.07-0.76-0.03-1.16,0.14s-0.74,0.44-1.05,0.82l-4.82,5.81
			c-0.83,1-1.72,1.63-2.69,1.91c-0.71,0.21-1.49,0.21-2.32-0.01C57.53,215.59,57.09,215.4,56.62,215.12z"/>
		<path class="st1" d="M77.51,210.18l-8.08,13.54l-4.42-2.63l-0.26-0.15c-0.24-0.14-0.4-0.3-0.47-0.46
			c-0.08-0.17-0.06-0.33,0.03-0.5c0.16-0.27,0.4-0.37,0.72-0.3c0.26,0.06,0.42,0.09,0.46,0.09c0.05,0,0.11-0.01,0.18-0.05
			c0.14-0.06,0.28-0.2,0.42-0.44l5.92-9.93c0.14-0.23,0.2-0.42,0.18-0.58c0-0.08-0.02-0.14-0.05-0.18s-0.13-0.16-0.3-0.36
			c-0.21-0.24-0.24-0.5-0.08-0.77c0.1-0.17,0.24-0.25,0.42-0.27c0.18-0.01,0.39,0.05,0.63,0.19l0.26,0.15L77.51,210.18z
			 M76.7,218.55c0.52,0.47,0.91,0.86,1.17,1.17c0.25,0.3,0.46,0.62,0.61,0.94c0.27,0.55,0.39,1.13,0.35,1.73s-0.24,1.2-0.58,1.77
			c-0.67,1.13-1.62,1.77-2.83,1.9c-0.63,0.07-1.24,0.02-1.84-0.15c-0.6-0.17-1.32-0.51-2.16-1.01l-1.18-0.7l0.62-1.04
			c0.28,0.14,0.51,0.22,0.69,0.26c0.19,0.03,0.38,0.02,0.58-0.04c0.36-0.11,0.7-0.43,1.01-0.95l1.34-2.25
			c0.2-0.33,0.32-0.61,0.38-0.82s0.05-0.45-0.01-0.69c-0.04-0.19-0.11-0.34-0.21-0.48c-0.1-0.13-0.26-0.29-0.49-0.47l0.62-1.03
			c0.26,0.13,0.47,0.21,0.63,0.24s0.33,0.03,0.51-0.01c0.17-0.04,0.33-0.11,0.5-0.23c0.17-0.12,0.29-0.24,0.38-0.37l0.33-0.55
			l1.02-1.72c0.11-0.18,0.19-0.38,0.25-0.61c0.06-0.23,0.08-0.43,0.06-0.59c-0.04-0.23-0.11-0.42-0.22-0.59
			c-0.11-0.17-0.29-0.34-0.54-0.52l0.65-1.09l1.14,0.68c1.51,0.9,2.47,1.9,2.9,2.99c0.19,0.5,0.27,1.01,0.22,1.53
			c-0.05,0.52-0.21,1.01-0.49,1.48c-0.28,0.46-0.63,0.84-1.07,1.14c-0.44,0.29-0.92,0.47-1.43,0.53c-0.38,0.06-0.78,0.05-1.2-0.02
			C77.96,218.92,77.4,218.77,76.7,218.55z"/>
		<path class="st1" d="M90.87,216.91l-5.89,14.63l-4.77-1.92l-0.28-0.11c-0.26-0.1-0.44-0.23-0.54-0.38s-0.11-0.32-0.04-0.5
			c0.12-0.29,0.34-0.43,0.66-0.41c0.27,0.02,0.42,0.02,0.47,0.02c0.05,0,0.1-0.03,0.17-0.07c0.13-0.08,0.25-0.24,0.35-0.5
			l4.32-10.73c0.1-0.25,0.13-0.45,0.09-0.6c-0.02-0.08-0.04-0.14-0.07-0.17s-0.15-0.14-0.35-0.31c-0.25-0.21-0.31-0.46-0.2-0.75
			c0.07-0.18,0.2-0.29,0.38-0.33c0.18-0.04,0.4-0.01,0.65,0.09l0.28,0.11L90.87,216.91z M91.36,225.31
			c0.59,0.39,1.04,0.71,1.33,0.97c0.3,0.26,0.55,0.54,0.75,0.84c0.35,0.5,0.56,1.05,0.61,1.66c0.05,0.61-0.05,1.22-0.3,1.84
			c-0.49,1.22-1.33,1.99-2.5,2.32c-0.61,0.17-1.22,0.22-1.84,0.14c-0.62-0.08-1.38-0.3-2.29-0.67l-1.28-0.51l0.45-1.13
			c0.29,0.09,0.54,0.14,0.72,0.15s0.38-0.04,0.56-0.13c0.34-0.17,0.62-0.53,0.85-1.09l0.98-2.43c0.14-0.36,0.23-0.65,0.25-0.87
			c0.02-0.22-0.02-0.45-0.12-0.68c-0.07-0.18-0.16-0.32-0.28-0.44c-0.12-0.11-0.31-0.24-0.55-0.39l0.45-1.11
			c0.27,0.08,0.49,0.13,0.66,0.14c0.17,0.01,0.33-0.02,0.5-0.08c0.16-0.06,0.31-0.16,0.46-0.3c0.15-0.14,0.25-0.28,0.32-0.42
			l0.24-0.59l0.75-1.85c0.08-0.19,0.13-0.41,0.15-0.64c0.02-0.24,0.01-0.43-0.04-0.59c-0.07-0.22-0.17-0.4-0.31-0.55
			c-0.14-0.15-0.34-0.29-0.62-0.43l0.47-1.18l1.23,0.5c1.63,0.66,2.74,1.49,3.32,2.51c0.27,0.47,0.42,0.96,0.45,1.48
			c0.03,0.52-0.05,1.03-0.26,1.54c-0.2,0.5-0.5,0.93-0.89,1.29c-0.39,0.36-0.83,0.61-1.33,0.75c-0.37,0.12-0.77,0.17-1.19,0.17
			S92.09,225.42,91.36,225.31z"/>
		<path class="st1" d="M97.38,231.17l2.03-8.83c0.06-0.26,0.06-0.46,0-0.61c-0.03-0.08-0.06-0.13-0.1-0.16
			c-0.04-0.03-0.17-0.11-0.4-0.25c-0.28-0.17-0.38-0.4-0.31-0.7c0.04-0.2,0.15-0.33,0.32-0.39c0.17-0.07,0.39-0.07,0.66-0.01
			l0.29,0.07l5.02,1.15l0.29,0.07l0.4,0.14c0.12,0.07,0.21,0.16,0.27,0.27s0.07,0.24,0.04,0.38c-0.07,0.3-0.27,0.46-0.59,0.49
			c-0.27,0.03-0.42,0.04-0.47,0.05c-0.05,0.01-0.1,0.04-0.16,0.1c-0.12,0.1-0.21,0.28-0.27,0.54l-2.17,9.45
			c-0.15,0.64-0.23,1.09-0.26,1.35s-0.01,0.5,0.05,0.73c0.05,0.21,0.13,0.37,0.23,0.48c0.1,0.11,0.31,0.26,0.62,0.44l-0.34,1.47
			l-0.25-0.06c-0.98-0.22-1.77-0.5-2.37-0.82c-0.71-0.38-1.31-0.83-1.79-1.36c-0.48-0.53-0.78-1.07-0.91-1.62
			C97.1,232.97,97.15,232.18,97.38,231.17z M103.58,237.65l0.34-1.47c0.77,0.08,1.47-0.09,2.09-0.49c0.71-0.46,1.19-1.25,1.44-2.36
			l1.69-7.34c0.24-1.03,0.01-1.84-0.69-2.42c-0.21-0.17-0.33-0.31-0.38-0.41c-0.05-0.1-0.06-0.24-0.02-0.4
			c0.04-0.2,0.15-0.32,0.31-0.37c0.16-0.05,0.4-0.04,0.73,0.04l2.76,0.63c0.23,0.05,0.39,0.09,0.46,0.12
			c0.08,0.03,0.15,0.08,0.21,0.14c0.17,0.16,0.23,0.33,0.19,0.53c-0.04,0.17-0.13,0.29-0.28,0.38c-0.05,0.03-0.23,0.09-0.55,0.19
			c-0.37,0.1-0.69,0.32-0.97,0.65c-0.27,0.33-0.46,0.73-0.57,1.2l-1.69,7.35c-0.29,1.26-0.81,2.23-1.55,2.92
			c-0.54,0.51-1.24,0.85-2.08,1.04C104.61,237.66,104.13,237.69,103.58,237.65z"/>
		<path class="st1" d="M113.32,223.3l3.03,0.24l-0.11,1.39c-0.38,0.18-0.68,0.42-0.9,0.73c-0.37,0.5-0.64,1.1-0.81,1.8l-0.17,0.69
			c-0.06,0.22-0.15,0.39-0.29,0.5c-0.14,0.12-0.3,0.17-0.49,0.15c-0.2-0.02-0.36-0.1-0.47-0.25c-0.12-0.15-0.17-0.33-0.15-0.56
			L113.32,223.3z M122.4,224.02l-1.07,13.53c-0.02,0.3,0.02,0.52,0.12,0.66c0.06,0.08,0.11,0.13,0.16,0.16
			c0.05,0.02,0.23,0.09,0.52,0.19c0.36,0.11,0.53,0.34,0.5,0.68c-0.02,0.2-0.13,0.35-0.34,0.46c-0.15,0.08-0.4,0.11-0.75,0.08
			l-0.38-0.03l-5.14-0.41l-0.38-0.03c-0.34-0.03-0.59-0.1-0.75-0.22c-0.16-0.12-0.24-0.28-0.22-0.49c0.03-0.34,0.23-0.53,0.6-0.59
			c0.31-0.05,0.49-0.09,0.54-0.1c0.06-0.01,0.11-0.06,0.17-0.13c0.13-0.12,0.2-0.33,0.22-0.63l1.07-13.53L122.4,224.02z
			 M126.38,224.33l-0.37,4.71c-0.02,0.22-0.1,0.4-0.23,0.53c-0.14,0.13-0.31,0.18-0.51,0.17c-0.19-0.02-0.35-0.09-0.46-0.23
			s-0.19-0.32-0.21-0.54l-0.06-0.71c-0.06-0.72-0.23-1.36-0.52-1.91c-0.18-0.34-0.44-0.63-0.78-0.86l0.11-1.39L126.38,224.33z"/>
		<path class="st1" d="M133.35,223.96l0.86,15.74l-5.13,0.28l-0.3,0.02c-0.28,0.02-0.49-0.03-0.65-0.12
			c-0.16-0.1-0.24-0.24-0.25-0.43c-0.02-0.31,0.13-0.53,0.43-0.65c0.25-0.1,0.39-0.16,0.44-0.18c0.04-0.02,0.08-0.07,0.12-0.14
			c0.09-0.13,0.12-0.33,0.11-0.6l-0.63-11.55c-0.02-0.27-0.07-0.46-0.17-0.58c-0.05-0.07-0.1-0.11-0.14-0.13
			c-0.04-0.02-0.19-0.06-0.45-0.13c-0.31-0.08-0.48-0.28-0.5-0.6c-0.01-0.19,0.06-0.34,0.2-0.46c0.14-0.11,0.35-0.18,0.63-0.19
			l0.3-0.02L133.35,223.96z M134.38,223.9l4.65-0.25l0.22,4.08c0.01,0.24-0.02,0.41-0.11,0.53c-0.09,0.11-0.23,0.17-0.43,0.19
			c-0.17,0.01-0.29-0.02-0.38-0.08s-0.16-0.2-0.24-0.41c-0.34-0.88-0.81-1.53-1.4-1.97s-1.34-0.68-2.24-0.72L134.38,223.9z
			 M134.78,232.3l-0.07-1.34c0.43-0.24,0.75-0.49,0.95-0.76c0.2-0.27,0.34-0.61,0.42-1.04c0.05-0.3,0.12-0.5,0.21-0.62
			c0.09-0.12,0.23-0.18,0.42-0.19c0.25-0.01,0.42,0.07,0.52,0.26c0.06,0.1,0.1,0.32,0.12,0.68l0.24,4.39
			c0.02,0.36-0.01,0.61-0.08,0.76c-0.07,0.14-0.22,0.22-0.43,0.23c-0.18,0.01-0.32-0.04-0.42-0.14c-0.11-0.1-0.2-0.28-0.27-0.53
			c-0.16-0.52-0.37-0.92-0.63-1.19C135.49,232.54,135.17,232.37,134.78,232.3z M135.25,239.65l-0.07-1.25
			c0.5-0.1,0.9-0.23,1.22-0.39c0.32-0.16,0.64-0.39,0.95-0.69c0.31-0.3,0.56-0.61,0.74-0.93c0.18-0.31,0.34-0.73,0.49-1.24
			c0.07-0.25,0.15-0.42,0.24-0.52c0.09-0.09,0.21-0.15,0.37-0.15c0.22-0.01,0.37,0.04,0.46,0.17c0.09,0.12,0.15,0.34,0.16,0.66
			l0.22,4.07L135.25,239.65z"/>
		<path class="st1" d="M146.3,223.28c-0.36,0.21-0.59,0.45-0.71,0.72c-0.11,0.27-0.12,0.62-0.03,1.08l2.01,10.13
			c0.13,0.67,0.32,1.12,0.55,1.35c0.19,0.2,0.48,0.31,0.88,0.33l0.25,1.25c-1.7,0.2-3.23-0.16-4.59-1.06
			c-1.76-1.17-2.9-3.07-3.42-5.69c-0.26-1.31-0.3-2.54-0.12-3.68c0.18-1.14,0.58-2.15,1.19-3.05c0.47-0.68,1.01-1.24,1.63-1.66
			c0.61-0.43,1.33-0.74,2.13-0.94L146.3,223.28z M147.23,223.1l-0.24-1.22c0.82-0.12,1.6-0.11,2.34,0.06s1.45,0.47,2.14,0.92
			c1.84,1.2,3.02,3.13,3.55,5.81c0.52,2.62,0.19,4.81-1,6.57c-0.91,1.36-2.19,2.27-3.85,2.73l-0.25-1.25
			c0.19-0.08,0.33-0.17,0.42-0.27c0.1-0.09,0.17-0.22,0.24-0.37c0.14-0.35,0.15-0.84,0.03-1.47l-2.01-10.13
			c-0.08-0.4-0.21-0.7-0.39-0.91c-0.12-0.14-0.25-0.24-0.4-0.31C147.68,223.19,147.48,223.14,147.23,223.1z"/>
		<path class="st1" d="M165.18,216.25l0.54,1.29c-0.39,0.24-0.63,0.55-0.71,0.95s0,0.87,0.24,1.44l3.68,8.81l0.19,0.46
			c0.07,0.16,0.17,0.32,0.32,0.48c0.14,0.15,0.29,0.27,0.45,0.35c0.17,0.09,0.34,0.15,0.49,0.15c0.15,0.01,0.34-0.02,0.57-0.1
			l0.54,1.3c-1.38,0.58-2.73,0.72-4.04,0.42c-1.16-0.26-2.19-0.83-3.09-1.71c-0.9-0.88-1.66-2.05-2.27-3.52
			c-0.45-1.07-0.72-2.13-0.81-3.19c-0.09-1.05,0-2.03,0.28-2.95c0.28-0.93,0.73-1.77,1.35-2.52c0.62-0.75,1.29-1.28,2.02-1.58
			L165.18,216.25z M166.56,217.2l-0.54-1.29c0.37-0.09,0.68-0.15,0.92-0.17c0.24-0.03,0.69-0.06,1.35-0.09
			c0.42-0.02,0.68-0.06,0.81-0.11c0.21-0.09,0.32-0.24,0.35-0.47l0.03-0.31c0.01-0.21,0.14-0.36,0.37-0.46
			c0.19-0.08,0.36-0.08,0.51-0.01s0.27,0.22,0.36,0.44l1.85,4.43c0.12,0.28,0.14,0.52,0.07,0.7c-0.07,0.18-0.19,0.31-0.36,0.37
			c-0.17,0.07-0.33,0.07-0.48,0.01c-0.15-0.07-0.31-0.21-0.48-0.43c-0.38-0.5-0.71-0.88-0.99-1.14c-0.59-0.55-1.16-0.95-1.73-1.21
			c-0.38-0.17-0.74-0.28-1.06-0.33S166.9,217.11,166.56,217.2z M172.37,231.01l-0.54-1.3c0.54-0.27,1.03-0.73,1.49-1.36
			c0.24-0.34,0.42-0.74,0.53-1.19c0.11-0.45,0.15-0.91,0.1-1.38c-0.02-0.26-0.01-0.45,0.05-0.59c0.06-0.14,0.16-0.24,0.32-0.3
			c0.17-0.07,0.34-0.07,0.51,0.01c0.17,0.08,0.29,0.22,0.37,0.41c0.13,0.32,0.17,0.76,0.12,1.32c-0.06,0.56-0.19,1.11-0.42,1.65
			c-0.27,0.67-0.61,1.21-1.01,1.65S172.98,230.72,172.37,231.01z"/>
		<path class="st1" d="M184.84,224.31l-4.45,2.58l-0.26,0.15c-0.24,0.14-0.45,0.2-0.63,0.19s-0.32-0.1-0.42-0.27
			c-0.16-0.27-0.13-0.53,0.09-0.77c0.18-0.2,0.28-0.32,0.31-0.36c0.03-0.04,0.04-0.1,0.05-0.18c0.02-0.15-0.04-0.35-0.17-0.58
			l-5.79-10.01c-0.13-0.23-0.27-0.38-0.42-0.44c-0.07-0.04-0.14-0.05-0.18-0.05c-0.05,0-0.2,0.03-0.46,0.09
			c-0.32,0.07-0.55-0.04-0.71-0.31c-0.1-0.17-0.11-0.33-0.03-0.5c0.08-0.17,0.24-0.32,0.48-0.46l0.26-0.15l4.46-2.58l0.34-0.2
			c0.29-0.17,0.53-0.25,0.7-0.24c0.23,0.01,0.4,0.1,0.5,0.27c0.17,0.29,0.12,0.57-0.16,0.83c-0.23,0.21-0.36,0.34-0.39,0.39
			c-0.04,0.05-0.06,0.12-0.08,0.21c-0.03,0.18,0.03,0.39,0.17,0.65L184.84,224.31z M185.65,223.85l-0.65-1.12
			c0.29-0.25,0.51-0.47,0.66-0.65c0.15-0.18,0.27-0.4,0.36-0.64c0.15-0.38,0.23-0.83,0.24-1.36c0.01-0.52-0.05-1.06-0.18-1.62
			c-0.11-0.43-0.15-0.73-0.12-0.9c0.02-0.17,0.12-0.3,0.29-0.4c0.19-0.11,0.37-0.11,0.54-0.01c0.08,0.05,0.19,0.19,0.31,0.41
			l2.36,4.07L185.65,223.85z"/>
		<path class="st1" d="M189.41,216.11l-5.58-7.13c-0.17-0.21-0.32-0.34-0.47-0.38c-0.08-0.03-0.14-0.03-0.19-0.02
			c-0.04,0.01-0.19,0.06-0.45,0.15c-0.3,0.11-0.55,0.05-0.74-0.2c-0.12-0.16-0.16-0.32-0.1-0.5c0.05-0.17,0.19-0.35,0.41-0.52
			l0.24-0.19l4.06-3.18l0.24-0.19l0.36-0.22c0.13-0.05,0.25-0.06,0.38-0.04c0.13,0.03,0.24,0.09,0.32,0.2
			c0.19,0.24,0.19,0.5,0.01,0.77c-0.15,0.22-0.23,0.36-0.25,0.4c-0.02,0.04-0.03,0.1-0.02,0.19c0,0.15,0.09,0.34,0.25,0.55
			l5.97,7.63c0.4,0.52,0.7,0.86,0.88,1.05c0.19,0.18,0.39,0.32,0.6,0.42c0.2,0.09,0.37,0.13,0.52,0.12
			c0.15-0.01,0.39-0.08,0.73-0.21l0.93,1.19l-0.2,0.16c-0.79,0.62-1.5,1.06-2.13,1.33c-0.74,0.32-1.47,0.49-2.18,0.53
			c-0.71,0.04-1.32-0.06-1.83-0.31C190.63,217.46,190.04,216.92,189.41,216.11z M198.34,215.36l-0.93-1.19
			c0.54-0.55,0.86-1.2,0.94-1.94c0.09-0.84-0.22-1.71-0.93-2.61l-4.64-5.93c-0.65-0.83-1.42-1.16-2.32-0.99
			c-0.26,0.05-0.45,0.06-0.56,0.04c-0.11-0.02-0.22-0.1-0.33-0.24c-0.12-0.16-0.15-0.31-0.09-0.47c0.06-0.16,0.23-0.34,0.49-0.54
			l2.23-1.74c0.19-0.15,0.32-0.24,0.39-0.28s0.15-0.07,0.24-0.08c0.23-0.03,0.41,0.03,0.53,0.19c0.1,0.13,0.14,0.28,0.12,0.45
			c-0.01,0.05-0.07,0.24-0.2,0.55c-0.15,0.35-0.19,0.74-0.1,1.16s0.27,0.82,0.57,1.2l4.65,5.94c0.8,1.02,1.23,2.03,1.29,3.04
			c0.05,0.74-0.11,1.5-0.5,2.27C199,214.57,198.71,214.96,198.34,215.36z"/>
		<path class="st1" d="M197.95,193.9l11.51,10.77l-3.51,3.75l-0.21,0.22c-0.19,0.2-0.37,0.32-0.55,0.36
			c-0.18,0.04-0.34-0.01-0.48-0.14c-0.23-0.22-0.28-0.47-0.14-0.76c0.11-0.24,0.18-0.39,0.19-0.43c0.02-0.04,0.01-0.11-0.01-0.19
			c-0.03-0.15-0.14-0.32-0.34-0.5l-8.44-7.9c-0.2-0.18-0.37-0.28-0.52-0.3c-0.08-0.01-0.15-0.01-0.19,0.01
			c-0.04,0.02-0.18,0.09-0.42,0.22c-0.28,0.16-0.54,0.13-0.77-0.09c-0.14-0.13-0.2-0.29-0.17-0.47c0.03-0.18,0.13-0.37,0.32-0.57
			l0.21-0.22L197.95,193.9z M205.96,196.47c0.57-0.41,1.04-0.71,1.39-0.89c0.35-0.18,0.7-0.32,1.05-0.4
			c0.59-0.15,1.18-0.14,1.77,0.03c0.58,0.17,1.12,0.49,1.61,0.94c0.96,0.9,1.38,1.96,1.26,3.17c-0.06,0.63-0.24,1.22-0.54,1.77
			c-0.3,0.55-0.78,1.18-1.45,1.9l-0.94,1l-0.89-0.83c0.19-0.24,0.33-0.45,0.4-0.62c0.07-0.17,0.1-0.36,0.08-0.57
			c-0.03-0.38-0.27-0.78-0.71-1.19l-1.92-1.79c-0.28-0.26-0.52-0.44-0.73-0.54c-0.2-0.1-0.43-0.15-0.68-0.14
			c-0.19,0-0.36,0.04-0.51,0.11s-0.34,0.2-0.56,0.38l-0.88-0.82c0.18-0.22,0.3-0.41,0.37-0.56c0.07-0.15,0.1-0.32,0.1-0.5
			c0-0.17-0.04-0.35-0.12-0.54c-0.08-0.19-0.17-0.34-0.28-0.45l-0.46-0.43l-1.46-1.37c-0.15-0.14-0.33-0.27-0.55-0.37
			c-0.21-0.1-0.4-0.16-0.57-0.18c-0.23-0.01-0.44,0.02-0.62,0.09c-0.19,0.07-0.39,0.21-0.63,0.42l-0.93-0.87l0.91-0.97
			c1.2-1.28,2.38-2.01,3.54-2.19c0.53-0.08,1.04-0.05,1.54,0.11c0.5,0.16,0.94,0.42,1.34,0.8c0.39,0.37,0.69,0.8,0.88,1.29
			s0.27,1,0.22,1.51c-0.02,0.39-0.12,0.78-0.27,1.17S206.33,195.83,205.96,196.47z"/>
	</g>
	<g>
		<path class="st1" d="M74.06,45.71l-4.24,2.71l-0.25,0.16c-0.23,0.15-0.43,0.22-0.61,0.21c-0.18-0.01-0.32-0.09-0.42-0.25
			c-0.17-0.26-0.15-0.51,0.05-0.76c0.17-0.2,0.26-0.32,0.28-0.36c0.02-0.04,0.04-0.1,0.04-0.18c0.01-0.15-0.05-0.34-0.2-0.56
			l-6.08-9.52c-0.14-0.22-0.28-0.36-0.42-0.41c-0.07-0.03-0.13-0.05-0.18-0.04c-0.04,0.01-0.19,0.04-0.45,0.11
			c-0.31,0.08-0.54-0.01-0.71-0.27c-0.1-0.16-0.12-0.32-0.05-0.48c0.07-0.16,0.22-0.32,0.45-0.47l0.25-0.16l4.24-2.71l0.25-0.16
			c0.45-0.29,0.78-0.27,0.99,0.06c0.17,0.27,0.16,0.51-0.03,0.74l-0.23,0.28c-0.14,0.18-0.1,0.45,0.12,0.8l6.08,9.52
			c0.23,0.36,0.45,0.51,0.68,0.45l0.36-0.09c0.29-0.08,0.52,0.02,0.69,0.28c0.21,0.33,0.09,0.64-0.36,0.93L74.06,45.71z
			 M70.32,38.09l1.55-0.99l-2.65-4.15c-0.23-0.35-0.45-0.51-0.68-0.45l-0.37,0.1c-0.29,0.08-0.52-0.02-0.69-0.28
			c-0.21-0.33-0.09-0.64,0.37-0.93l0.25-0.16l4.23-2.7l0.26-0.16c0.48-0.3,0.82-0.29,1.03,0.04c0.17,0.26,0.15,0.51-0.05,0.76
			c-0.17,0.2-0.26,0.32-0.28,0.36c-0.02,0.04-0.04,0.1-0.04,0.18c-0.01,0.15,0.05,0.34,0.2,0.56l6.06,9.48
			c0.22,0.35,0.45,0.5,0.69,0.46l0.37-0.09c0.31-0.08,0.54,0.01,0.71,0.28c0.21,0.34,0.08,0.66-0.39,0.96l-0.26,0.16l-4.23,2.7
			l-0.27,0.17c-0.44,0.28-0.77,0.26-0.99-0.08c-0.17-0.27-0.16-0.52,0.03-0.75l0.24-0.3c0.15-0.17,0.1-0.45-0.13-0.81l-2.81-4.39
			l-1.55,0.99L70.32,38.09z"/>
		<path class="st1" d="M82.04,35.73l-3.48-8.13c-0.1-0.24-0.22-0.4-0.35-0.48c-0.07-0.04-0.12-0.07-0.17-0.07s-0.2,0.01-0.46,0.03
			c-0.31,0.03-0.53-0.1-0.65-0.37c-0.08-0.18-0.07-0.35,0.03-0.5c0.09-0.15,0.27-0.28,0.52-0.39l0.27-0.12l4.63-1.98l0.27-0.12
			l0.39-0.12c0.13-0.02,0.26,0.01,0.37,0.06c0.11,0.06,0.2,0.15,0.25,0.27c0.12,0.28,0.06,0.52-0.18,0.73
			c-0.2,0.17-0.31,0.28-0.34,0.31c-0.03,0.03-0.05,0.09-0.07,0.17c-0.04,0.15,0,0.34,0.1,0.58l3.73,8.7
			c0.25,0.59,0.44,0.99,0.57,1.21c0.13,0.22,0.28,0.4,0.46,0.55c0.16,0.13,0.32,0.22,0.46,0.24c0.14,0.03,0.39,0.02,0.74-0.01
			l0.58,1.36l-0.23,0.1c-0.9,0.39-1.68,0.63-2.34,0.72c-0.78,0.11-1.51,0.1-2.19-0.04c-0.68-0.14-1.23-0.39-1.65-0.75
			C82.85,37.32,82.43,36.66,82.04,35.73z M90.66,37.27l-0.58-1.36c0.65-0.39,1.11-0.92,1.37-1.59c0.29-0.77,0.22-1.67-0.22-2.69
			l-2.9-6.76c-0.41-0.95-1.05-1.45-1.94-1.51c-0.26-0.02-0.44-0.05-0.54-0.11c-0.1-0.05-0.18-0.15-0.25-0.31
			c-0.08-0.18-0.07-0.34,0.03-0.47c0.1-0.13,0.3-0.26,0.59-0.39l2.54-1.09c0.21-0.09,0.36-0.15,0.44-0.17
			c0.08-0.02,0.16-0.02,0.25-0.01c0.22,0.03,0.38,0.13,0.45,0.31c0.07,0.15,0.06,0.3,0,0.46c-0.02,0.05-0.13,0.21-0.33,0.47
			c-0.23,0.3-0.36,0.65-0.39,1.07c-0.03,0.42,0.05,0.84,0.24,1.28l2.9,6.77c0.5,1.16,0.65,2.23,0.46,3.19
			c-0.14,0.71-0.48,1.39-1.04,2.02C91.48,36.69,91.11,36.99,90.66,37.27z"/>
		<path class="st1" d="M99.2,17.91l8.4,8.62l1.23,4.82l-2.99,0.76l-10.69-10.9c-0.23-0.24-0.41-0.4-0.54-0.48
			c-0.13-0.08-0.28-0.13-0.46-0.14l-0.45-0.05c-0.12-0.01-0.22-0.05-0.31-0.13s-0.15-0.18-0.18-0.29c-0.03-0.12-0.03-0.25,0.01-0.37
			c0.04-0.12,0.11-0.22,0.21-0.29c0.11-0.08,0.44-0.19,0.99-0.33L99.2,17.91z M95.6,22.91l1.65,1.63l1.5,5.86
			c0.13,0.51,0.32,0.91,0.58,1.19c0.25,0.28,0.6,0.48,1.02,0.6l0.38,0.1c0.22,0.06,0.35,0.2,0.41,0.42c0.04,0.17,0.01,0.32-0.1,0.47
			c-0.09,0.12-0.32,0.23-0.69,0.33l-2.53,0.64c-0.66,0.17-1.04,0.06-1.14-0.31c-0.03-0.13-0.03-0.24,0.02-0.34s0.17-0.24,0.37-0.43
			c0.6-0.56,0.77-1.36,0.51-2.38L95.6,22.91z M107.15,24.77l-1.66-1.66l-0.77-3.03c-0.16-0.61-0.36-1.06-0.63-1.34
			c-0.26-0.28-0.65-0.48-1.16-0.6c-0.17-0.03-0.3-0.08-0.38-0.15c-0.08-0.07-0.14-0.17-0.17-0.3c-0.05-0.2-0.02-0.36,0.08-0.48
			c0.1-0.12,0.3-0.22,0.58-0.29l2.73-0.7c0.37-0.09,0.63-0.1,0.78-0.01c0.15,0.08,0.25,0.21,0.29,0.37
			c0.04,0.15,0.03,0.28-0.02,0.37c-0.05,0.09-0.19,0.24-0.42,0.44c-0.34,0.3-0.55,0.67-0.64,1.13c-0.06,0.33-0.03,0.76,0.1,1.27
			L107.15,24.77z"/>
		<path class="st1" d="M115.63,14.62l0.13,1.25c-0.64,0.22-0.92,0.78-0.83,1.67L116,27.99c0.04,0.4,0.13,0.71,0.26,0.92
			c0.12,0.17,0.34,0.3,0.66,0.4l0.13,1.27c-0.24,0.02-0.46,0.03-0.66,0.01c-0.2-0.02-0.47-0.06-0.81-0.14
			c-0.81-0.19-1.57-0.53-2.26-1.02s-1.28-1.1-1.78-1.83c-0.76-1.14-1.22-2.53-1.39-4.18c-0.16-1.59-0.02-3.04,0.42-4.33
			c0.44-1.29,1.16-2.35,2.15-3.16c0.57-0.47,1.2-0.84,1.89-1.09C114.89,14.73,115.23,14.66,115.63,14.62z M116.67,15.75l-0.12-1.21
			c1.23-0.01,2.26,0.11,3.08,0.37c0.24,0.08,0.43,0.11,0.55,0.1c0.12-0.01,0.21-0.05,0.27-0.11c0.06-0.06,0.17-0.23,0.34-0.52
			c0.12-0.2,0.27-0.31,0.48-0.33c0.21-0.02,0.36,0.02,0.46,0.13c0.1,0.11,0.16,0.3,0.19,0.56l0.45,4.37
			c0.06,0.57-0.12,0.88-0.54,0.92c-0.21,0.02-0.37-0.02-0.48-0.12c-0.11-0.1-0.23-0.31-0.35-0.63c-0.16-0.41-0.41-0.88-0.76-1.4
			c-0.35-0.53-0.67-0.94-0.98-1.23c-0.35-0.34-0.72-0.58-1.12-0.72C117.73,15.77,117.24,15.72,116.67,15.75z M123.03,27.76
			c-0.27,0.33-0.64,0.68-1.1,1.04c-0.47,0.36-0.91,0.65-1.33,0.88c-0.39,0.2-0.82,0.37-1.3,0.52c-0.48,0.15-0.91,0.24-1.28,0.28
			l-0.13-1.27c0.21-0.07,0.37-0.15,0.47-0.24c0.1-0.09,0.18-0.2,0.24-0.34c0.1-0.24,0.14-0.55,0.1-0.91l-0.34-3.28
			c-0.03-0.29-0.11-0.5-0.23-0.61c-0.06-0.07-0.12-0.11-0.17-0.12s-0.23-0.04-0.53-0.08c-0.37-0.05-0.57-0.24-0.6-0.57
			c-0.02-0.19,0.05-0.35,0.21-0.47s0.4-0.2,0.73-0.23l0.37-0.04l4.11-0.42c0.34-0.03,0.58-0.01,0.73,0.07
			c0.15,0.08,0.23,0.24,0.26,0.47c0.01,0.14,0,0.26-0.05,0.36c-0.05,0.1-0.14,0.21-0.28,0.33c-0.14,0.12-0.22,0.23-0.25,0.32
			c-0.03,0.09-0.03,0.26-0.01,0.5L123.03,27.76z"/>
		<path class="st1" d="M129.35,17.15l0.49,2.36l-2.27,7.21c-0.07,0.21-0.11,0.4-0.11,0.58c-0.02,0.47,0.19,0.82,0.63,1.04l0.39,0.2
			c0.24,0.12,0.36,0.31,0.35,0.58c-0.01,0.38-0.3,0.55-0.84,0.53l-2.86-0.11c-0.28-0.01-0.5-0.08-0.65-0.2s-0.23-0.29-0.22-0.49
			c0.01-0.22,0.18-0.39,0.52-0.52c0.31-0.12,0.55-0.24,0.7-0.34s0.3-0.25,0.44-0.43c0.22-0.3,0.41-0.7,0.57-1.21L129.35,17.15z
			 M130.24,14.31l4.54,0.17l2.64,13.37c0.05,0.24,0.11,0.44,0.18,0.63c0.06,0.15,0.21,0.27,0.44,0.37c0.19,0.09,0.32,0.18,0.4,0.26
			c0.07,0.09,0.11,0.2,0.1,0.34c-0.01,0.39-0.32,0.58-0.9,0.55l-5.63-0.21c-0.23-0.01-0.4-0.07-0.54-0.18s-0.19-0.26-0.19-0.44
			c0.01-0.15,0.04-0.26,0.1-0.33s0.2-0.16,0.42-0.27c0.15-0.07,0.26-0.15,0.32-0.24s0.1-0.2,0.1-0.33c0-0.13,0-0.24-0.02-0.34
			l-0.3-1.65l-3.15-0.12l0.35-1.33l2.53,0.1l-1.73-9.25L130.24,14.31z"/>
		<path class="st1" d="M147.8,16.09l-2.47,13.03c-0.05,0.29-0.04,0.51,0.05,0.65c0.05,0.09,0.09,0.14,0.14,0.17s0.21,0.11,0.48,0.24
			c0.34,0.15,0.48,0.39,0.42,0.71c-0.04,0.19-0.16,0.33-0.38,0.41c-0.16,0.06-0.4,0.06-0.72,0l-0.38-0.07l-4.95-0.94l-0.29-0.05
			c-0.27-0.05-0.46-0.14-0.59-0.27c-0.12-0.13-0.17-0.28-0.14-0.47c0.06-0.3,0.24-0.47,0.56-0.51c0.26-0.04,0.41-0.06,0.46-0.07
			s0.09-0.04,0.15-0.1c0.11-0.1,0.19-0.28,0.24-0.54l2.1-11.1c0.05-0.26,0.04-0.46-0.03-0.59c-0.03-0.07-0.07-0.13-0.1-0.15
			c-0.04-0.03-0.17-0.1-0.4-0.23c-0.28-0.15-0.39-0.38-0.33-0.68c0.03-0.19,0.13-0.31,0.3-0.39c0.16-0.07,0.38-0.08,0.64-0.03
			l0.29,0.05L147.8,16.09z M149.74,24.45c0.66,0.23,1.16,0.45,1.5,0.64c0.34,0.2,0.64,0.43,0.9,0.7c0.27,0.29,0.45,0.61,0.56,0.96
			c0.11,0.35,0.13,0.7,0.06,1.06l-0.44,2.29c-0.04,0.24,0.01,0.37,0.17,0.4c0.06,0.01,0.11,0,0.16-0.02
			c0.05-0.03,0.12-0.08,0.21-0.16c0.23-0.22,0.44-0.31,0.64-0.27c0.13,0.02,0.24,0.11,0.34,0.27c0.1,0.16,0.14,0.3,0.11,0.44
			c-0.04,0.23-0.21,0.49-0.49,0.78c-0.28,0.29-0.61,0.53-0.98,0.73c-0.35,0.19-0.71,0.3-1.09,0.34c-0.38,0.04-0.8,0.01-1.28-0.08
			c-0.98-0.19-1.68-0.61-2.13-1.27c-0.44-0.66-0.57-1.49-0.38-2.49l0.35-1.86c0.08-0.41,0.12-0.66,0.13-0.72
			c0.02-0.3-0.04-0.58-0.17-0.82c-0.17-0.3-0.44-0.51-0.83-0.63l0.23-1.19c0.41,0.02,0.71-0.03,0.91-0.15
			c0.17-0.1,0.3-0.24,0.39-0.4s0.16-0.41,0.23-0.74l0.56-2.94c0.09-0.47,0.06-0.83-0.07-1.09s-0.43-0.51-0.88-0.73l0.23-1.23
			l0.29,0.05c0.82,0.16,1.51,0.32,2.08,0.49c0.84,0.24,1.55,0.67,2.14,1.28c0.84,0.87,1.14,1.94,0.9,3.21
			c-0.2,1.04-0.69,1.83-1.46,2.38c-0.33,0.23-0.69,0.4-1.09,0.51C151.12,24.28,150.53,24.37,149.74,24.45z"/>
		<path class="st1" d="M160.09,35.2l-4.79-1.55l-0.28-0.09c-0.26-0.08-0.44-0.2-0.55-0.34c-0.11-0.14-0.13-0.3-0.08-0.48
			c0.1-0.29,0.3-0.44,0.62-0.44c0.26,0,0.42-0.01,0.46-0.01c0.04,0,0.1-0.03,0.16-0.08c0.12-0.09,0.23-0.26,0.31-0.51l3.48-10.75
			c0.08-0.25,0.1-0.45,0.05-0.59c-0.02-0.08-0.05-0.13-0.08-0.16c-0.03-0.03-0.16-0.12-0.37-0.28c-0.26-0.19-0.34-0.43-0.24-0.72
			c0.06-0.18,0.17-0.29,0.34-0.35c0.17-0.05,0.39-0.04,0.64,0.05l0.28,0.09l4.79,1.55l0.28,0.09c0.26,0.08,0.44,0.2,0.55,0.34
			c0.11,0.14,0.13,0.3,0.08,0.48c-0.1,0.29-0.3,0.44-0.62,0.44c-0.26,0-0.42,0.01-0.46,0.01c-0.05,0-0.1,0.03-0.16,0.08
			c-0.12,0.09-0.23,0.26-0.31,0.51l-3.48,10.75c-0.08,0.25-0.1,0.45-0.05,0.59c0.02,0.08,0.05,0.13,0.08,0.16
			c0.03,0.03,0.16,0.12,0.37,0.28c0.26,0.19,0.34,0.43,0.24,0.72c-0.06,0.18-0.17,0.29-0.34,0.35s-0.39,0.04-0.64-0.05L160.09,35.2z
			"/>
		<path class="st1" d="M171.2,26.1l-0.45,2.36l-4.85,5.79c-0.14,0.17-0.25,0.33-0.33,0.5c-0.2,0.43-0.14,0.83,0.18,1.2l0.28,0.33
			c0.18,0.21,0.21,0.43,0.1,0.67c-0.16,0.34-0.49,0.4-0.98,0.17l-2.61-1.19c-0.25-0.12-0.43-0.26-0.53-0.43
			c-0.1-0.17-0.11-0.35-0.02-0.54c0.09-0.2,0.32-0.29,0.68-0.29c0.34,0.01,0.59-0.01,0.77-0.05s0.37-0.11,0.57-0.23
			c0.32-0.19,0.65-0.49,0.98-0.9L171.2,26.1z M173.11,23.81l4.13,1.9l-2.68,13.36c-0.04,0.24-0.07,0.45-0.07,0.65
			c0,0.16,0.09,0.33,0.26,0.51c0.14,0.16,0.23,0.29,0.27,0.4c0.03,0.11,0.02,0.23-0.04,0.35c-0.16,0.36-0.51,0.41-1.04,0.17
			l-5.12-2.35c-0.21-0.09-0.35-0.22-0.42-0.37c-0.08-0.16-0.08-0.32,0-0.48c0.06-0.14,0.14-0.23,0.22-0.27
			c0.09-0.04,0.25-0.07,0.49-0.09c0.17-0.01,0.3-0.04,0.39-0.09c0.09-0.06,0.17-0.15,0.22-0.27c0.05-0.12,0.09-0.22,0.11-0.32
			l0.35-1.64l-2.86-1.31l0.84-1.09l2.3,1.05l1.94-9.21L173.11,23.81z"/>
		<path class="st1" d="M182.69,33.03l-0.08,2.32l-3.3,5.07c-0.29,0.44-0.45,0.85-0.49,1.23c-0.04,0.38,0.05,0.77,0.25,1.16
			l0.18,0.35c0.1,0.2,0.09,0.4-0.03,0.59c-0.09,0.15-0.23,0.23-0.41,0.24c-0.15,0.02-0.39-0.08-0.7-0.28l-2.18-1.42
			c-0.57-0.37-0.75-0.72-0.54-1.05c0.07-0.11,0.16-0.18,0.27-0.21c0.1-0.03,0.29-0.03,0.57-0.01c0.82,0.06,1.52-0.35,2.1-1.23
			L182.69,33.03z M188.81,32.29l-0.66,12.01l-2.72,4.17l-2.58-1.68l0.78-15.25c0.02-0.33,0.01-0.57-0.01-0.72
			c-0.03-0.15-0.1-0.29-0.21-0.43l-0.27-0.37c-0.07-0.09-0.11-0.2-0.12-0.32c0-0.12,0.03-0.23,0.09-0.33
			c0.07-0.11,0.16-0.19,0.28-0.24c0.12-0.05,0.23-0.07,0.35-0.05c0.14,0.03,0.44,0.19,0.91,0.5L188.81,32.29z M189.14,42.79
			l0.1-2.35l1.71-2.62c0.35-0.53,0.53-0.98,0.56-1.37c0.03-0.38-0.09-0.8-0.35-1.26c-0.09-0.15-0.14-0.28-0.14-0.38
			c0-0.1,0.03-0.21,0.11-0.33c0.11-0.17,0.25-0.26,0.41-0.27c0.16-0.01,0.37,0.07,0.61,0.23l2.36,1.54c0.32,0.21,0.5,0.4,0.54,0.56
			c0.04,0.17,0.02,0.33-0.07,0.46c-0.09,0.13-0.18,0.21-0.28,0.24s-0.3,0.02-0.61-0.01c-0.45-0.05-0.87,0.05-1.27,0.29
			c-0.29,0.18-0.58,0.49-0.86,0.93L189.14,42.79z"/>
	</g>
	<g>
		<path class="st1" d="M148.46,131.69c-31.54-2.6-63.85,3.5-93.19,18.53c1.93,6.01,4.59,11.7,7.88,16.96
			c26.39-14.65,55.79-22.24,85.46-22.62c-1.15-1.97-1.8-4.2-1.8-6.56C146.81,135.73,147.4,133.6,148.46,131.69z"/>
		<path class="st1" d="M200.75,144.5c-6.59-2.78-13.32-5.12-20.15-7.04c0.01,0.18,0.02,0.35,0.02,0.53c0,3.15-1.16,6.07-3.12,8.46
			c7.2,1.05,14.36,2.53,21.45,4.45C199.63,148.8,200.24,146.67,200.75,144.5z"/>
		<path class="st1" d="M180.6,137.46c-10.52-2.95-21.28-4.87-32.14-5.77c-1.06,1.91-1.65,4.05-1.65,6.3c0,2.36,0.65,4.59,1.8,6.56
			c9.63-0.13,19.29,0.5,28.88,1.9c1.97-2.39,3.12-5.31,3.12-8.46C180.61,137.81,180.6,137.63,180.6,137.46z"/>
	</g>
	<g>
		<path class="st1" d="M174.67,135.67c0.59-8.72-5.02-11.35-5.07-11.37c-1.84-0.59-3.82-0.92-5.89-0.92
			c-6.72,0-12.53,3.4-15.25,8.31c10.86,0.89,21.62,2.82,32.14,5.77L174.67,135.67z"/>
		<path class="st1" d="M180.51,136.47l0.08,0.99C180.58,137.12,180.55,136.79,180.51,136.47z"/>
		<path class="st6" d="M174.67,135.67l5.92,1.79l-0.08-0.99c-0.67-5.61-5.01-10.27-10.91-12.17
			C169.66,124.32,175.26,126.95,174.67,135.67z"/>
	</g>
	<g>
		<path class="st5" d="M174.64,84.5c-1.29-3.62-3.42-6.68-5.47-9v9H174.64z"/>
		<path class="st1" d="M174.64,84.5h-5.47v-9c-2.82-3.21-5.47-5.03-5.47-5.03h-3.26c-1.22,0-2.21,1.11-2.21,2.49V84.5H146.1
			c-1.22,0-2.21,1.11-2.21,2.49v7.36c0,1.37,0.99,2.49,2.21,2.49h12.14v31.19c0,1.37,0.99,2.49,2.21,2.49h6.53
			c1.22,0,2.21-1.11,2.21-2.49V96.82h5.92C176.38,92.25,175.93,88.09,174.64,84.5z"/>
		<path class="st6" d="M166.97,70.47h-3.26l5.35,1.7C168.76,71.19,167.95,70.47,166.97,70.47z"/>
		<path class="st6" d="M169.18,75.5v-2.54c0-0.28-0.05-0.54-0.12-0.79l-5.35-1.7C163.71,70.47,166.36,72.29,169.18,75.5z"/>
		<path class="st6" d="M183.53,94.34v-7.36c0-1.37-0.99-2.49-2.21-2.49h-6.68c1.28,3.6,1.74,7.76,0.46,12.33h6.22
			C182.54,96.82,183.53,95.71,183.53,94.34z"/>
	</g>
	<g>
		<g>
			<ellipse class="st7" cx="105.82" cy="116.64" rx="42.48" ry="42.66"/>
			<path class="st1" d="M83.77,83.63c1.23,0.97-0.36,1.34-2.06,2.63C68.15,96.5,69.35,118.43,70.38,123.4
				c0.64,3.09-0.2,3.4-3.07,4.75c-0.51,0.24-1.02-0.36-1.19-1.05c-0.87-3.34-1.32-6.87-1.32-10.55c0-13.59,6.62-25.64,16.81-33.1
				c0.62-0.46,0.99-0.51,1.41-0.24C83.16,83.3,83.46,83.39,83.77,83.63z"/>
			<path class="st1" d="M117.89,155.72c7.13-2.2,14.04-6.85,18.93-12.26c0.39-0.83-2.21,1.6-3.83,2.41
				c-6.35,3.2-8.89,3.12-10.25,4.36c-1.35,1.24-2.54,2.59-5.21,4.4C116.09,155.61,116.71,156.19,117.89,155.72"/>
			<path class="st1" d="M114.62,155.83c8.77-6.03,10.78-9.34,13.76-15.44c0.67-1.38,1.87-5.06,0.4-6.36
				c-1.13-0.99-6.9-5.92-8.08-6.27c-1.18-0.35-1.38,0.8-2.96,3.99c-3.86,7.81-14.09,17.58-24.18,22.86
				c-0.83,0.44-0.42,0.97,0.47,1.21c3.72,1.11,7.67,1.71,11.75,1.71c2.24,0,4.45-0.15,5.53-0.37
				C112.39,156.94,113.59,156.54,114.62,155.83z"/>
			<path class="st1" d="M67.75,128.78c9.28-4.74,15.02-8.07,17.97-11.57c2.87-3.4,5.23-2.61,6.4-2.25
				c1.18,0.35,9.72,2.53,10.78,3.59c1.06,1.06,0.87,2.93,0.12,4.27c-2.65,4.71-18.14,17.51-24.98,20.36
				c-1.83,0.76-2.44,0.99-3.25,0.18c-3.27-3.7-5.81-7.91-7.51-12.54C66.98,129.82,66.91,129.21,67.75,128.78z"/>
			<path class="st1" d="M92.92,153.87c15.39-9.05,22.58-18.28,24.99-24.65c0.54-1.43,1-2.65-0.47-3.95
				c-1.12-0.99-8.89-4.74-10.07-5.09c-1.18-0.35-1.36-0.76-3.24,2.27c-4.28,6.92-15.78,17.18-25.67,21.9
				c-0.5,0.24-2.12,0.77-1.36,1.48c3.88,3.81,8.17,6.7,13.32,8.73C91.28,154.87,92.5,154.11,92.92,153.87z"/>
			<path class="st1" d="M140.17,115.28c-11.24-10.94-33.32-19.51-48.81-21.11c-2.53-0.26-2.83,1.08-3.65,2.84
				c-0.69,1.48-2.06,7.36-2.03,10.8c0.02,2.12-0.1,4.55,2.46,5c10.5,1.84,29.97,9.72,38.93,18.26c2.65,2.53,3.57,2.47,5.92,0
				c2.84-2.99,6.37-6.99,7.31-8.76C141.24,120.54,142.8,117.83,140.17,115.28z"/>
			<path class="st1" d="M141.16,97.03c-9.97-9.76-20.65-14.69-36.14-16.28c-2.53-0.26-5.24-0.71-7.71,1.88
				c-1.29,1.35-6.36,6.8-6.24,8.92c0.12,2.12,3.1,1.78,8.04,2.97c10.2,2.46,27.07,7.85,38.55,17.19c5.49,4.46,5.39,6.64,6.54,5.63
				c1.11-0.98,2.33-3.64,2.28-5.75C146.43,109.59,143.78,99.6,141.16,97.03z"/>
			<path class="st1" d="M96.1,82.68c-4,4.4-12.64,11.71-11.68,28.62c0.16,2.83,5.18,1.59-1.75,7.5c-1.47,1.25-6.31,4.21-8.48,5.26
				c-2.99,1.44-2.74,0.4-3.27-3.67c-0.55-4.2-0.49-26.41,12.64-34.36c1.6-0.97,2.73-1.46,4.38-2.1c1.65-0.65,4.12-1.65,6.95-2.53
				C97.72,80.52,97.71,80.92,96.1,82.68z"/>
			<path class="st1" d="M146.77,116.55c0,8.28-2.5,15.88-6.73,22.32c-2.68,4.03-8.71,7.49-13.94,8.88
				c-0.95,0.25-0.07-0.84,1.09-2.77c1.62-2.7,3.33-7,3.49-8.94c0.11-1.41,1.12-1.64,2.34-2.73c4.11-3.67,10.66-11.1,12.95-16.85
				C146.21,115.87,146.92,113.05,146.77,116.55z"/>
			<path class="st1" d="M141.11,95.41c-7.25-11.98-20.31-19.84-35.33-19.84c-0.26,0-0.51,0-0.77,0.01c-1.75-0.04-2.24,0.52-3,1.85
				c-1.02,1.76-1.28,2.43,0,2.44c4.43,0.05,21.58,0.63,36.56,13.37C139.17,93.73,141.51,96.07,141.11,95.41z"/>
			<path class="st1" d="M101.4,76.81c-0.86,2.01-0.91,2.89-3.11,3.11c-2.06,0.21-8.6,2.27-11.14,3.48
				c-2.47,1.18-1.67,0.69-3.32-0.48c-0.74-0.52,0.3-1.18,0.72-1.43c4.34-2.6,9.17-4.45,14.34-5.34
				C99.93,75.98,101.93,75.57,101.4,76.81z"/>
			<path class="st8" d="M71.81,136.1c1.48,2.27,2.23,3.65,3.76,4.48c1.53,0.82,3.18,0.29,5.13-0.89c1.94-1.18,9.17-5.74,15-11.57
				c3.89-3.89,1.31-2.6-0.37-0.91C93.3,129.25,82.4,137.2,79,138.4c-2.59,0.91-4.39-1.08-5.65-2.97
				C71.12,132.1,69.9,133.16,71.81,136.1z"/>
			<path class="st8" d="M86.41,149.85c0.89,0.99,1.5,1.41,3.03,2.24c1.53,0.82,3.5-0.22,4.83-0.97c1.98-1.12,8.61-5.72,14.37-11.63
				c2.21-2.27,1.21-2.13-0.47-0.44c-2.04,2.04-10.08,8.71-15.06,10.5c-2.59,0.93-4.04,1.22-5.69-0.34
				C85.8,147.67,85.14,148.43,86.41,149.85z"/>
			<path class="st9" d="M74.81,98.95c-1.55,3.99-3.67,11.63-2.3,21.89c0.33,2.47,1.5,1.43,2.5,0.96c1-0.47,4.74-3.56-0.31-1.86
				c-2.33,0.78-1.69-15.64,0.67-21.04C76.73,95.78,75.55,97.04,74.81,98.95z"/>
			<path class="st8" d="M106.19,155.87c5.48,1,10.64-3.56,13.87-7.17c2.16-2.41,1.34-2.21-0.53-0.35
				c-2.26,2.25-6.33,6.26-12.11,5.61C103.84,153.55,102.73,155.23,106.19,155.87z"/>
			<path class="st9" d="M87.58,104.01c-1.08,3.03-0.99,5.58,3.96,6.95c6.4,1.77,19.33,5.66,31.28,13.41
				c6.44,4.18,3.45,2.28,0.4-0.53c-7.07-6.49-28.04-13.09-31.13-14.62c-1.61-0.79-4.47-1.45-2.94-5.1
				C89.94,102.23,88.61,101.11,87.58,104.01z"/>
			<path class="st9" d="M97.52,86.27c-1.78,2.43-1.91,5.1,3.09,6.26c7.21,1.68,20.53,5.75,32.68,13.19
				c0.43,0.26,0.58-0.15,0.35-0.35c-7.04-6.52-26.97-12.84-31.66-14.25c-3.37-1.01-4.37-1.11-3-4.37
				C99.76,84.85,99.33,83.78,97.52,86.27z"/>
			<path class="st8" d="M132.26,138.37c0.22-0.67-0.15-0.6-0.45,0.08c-0.91,2.08-1.72,3.6-2.24,5.04c-0.31,0.86,0.47,1.24,1.1,1.02
				c1.7-0.61,2.94-1.23,4.16-2.03c0.28-0.18,0.53-0.57-0.11-0.24c-1.29,0.66-3.61,1.8-3.89,0.7
				C130.67,142.25,131.85,139.62,132.26,138.37z"/>
		</g>
		<path class="st10" d="M128.74,80.59c4.91,5.35,8.5,12.03,10.13,19.64c4.86,22.75-9.64,45.13-32.38,49.99
			c-12.85,2.75-25.58-0.69-35.1-8.29c9.65,13.06,26.36,20.02,43.28,16.4c23.06-4.93,37.76-27.62,32.83-50.69
			C145.01,96.01,138.02,86.52,128.74,80.59z"/>
	</g>
</g>
</svg>
