<?xml version="1.0" encoding="UTF-8"?>
<svg id="Laugh" xmlns="http://www.w3.org/2000/svg" xmlns:xlink="http://www.w3.org/1999/xlink" viewBox="0 0 558.97 558.97">
  <defs>
    <style>
      .cls-1 {
        opacity: .18;
      }

      .cls-2 {
        fill: url(#linear-gradient);
      }

      .cls-2, .cls-3, .cls-4, .cls-5, .cls-6, .cls-7, .cls-8, .cls-9, .cls-10, .cls-11, .cls-12, .cls-13, .cls-14, .cls-15, .cls-16, .cls-17, .cls-18, .cls-19 {
        stroke-width: 0px;
      }

      .cls-3 {
        fill: #f3f2f0;
      }

      .cls-4 {
        fill: url(#linear-gradient-6);
      }

      .cls-5 {
        fill: #c0b8af;
      }

      .cls-6 {
        fill: #2c373a;
      }

      .cls-7 {
        fill: url(#linear-gradient-5);
      }

      .cls-8 {
        fill: #0376ba;
      }

      .cls-9 {
        fill: #e33a36;
      }

      .cls-10 {
        fill: url(#linear-gradient-2);
      }

      .cls-11 {
        fill: #fafafa;
      }

      .cls-12 {
        fill: url(#linear-gradient-7);
      }

      .cls-13 {
        fill: url(#linear-gradient-3);
      }

      .cls-14 {
        fill: #fdc929;
      }

      .cls-15 {
        fill: url(#linear-gradient-8);
      }

      .cls-16 {
        fill: #cbc1b5;
      }

      .cls-17 {
        fill: #9f9286;
      }

      .cls-18 {
        fill: url(#linear-gradient-4);
      }

      .cls-19 {
        fill: #babcbe;
      }
    </style>
    <linearGradient id="linear-gradient" x1="26.37" y1="279.48" x2="534.24" y2="279.48" gradientUnits="userSpaceOnUse">
      <stop offset="0" stop-color="#000"/>
      <stop offset=".13" stop-color="#000"/>
      <stop offset="1" stop-color="#000"/>
    </linearGradient>
    <linearGradient id="linear-gradient-2" x1="177" y1="270.07" x2="407.9" y2="270.07" gradientUnits="userSpaceOnUse">
      <stop offset="0" stop-color="#fff"/>
      <stop offset=".01" stop-color="#f7f7f7"/>
      <stop offset=".09" stop-color="#c3c3c3"/>
      <stop offset=".17" stop-color="#959595"/>
      <stop offset=".26" stop-color="#6d6d6d"/>
      <stop offset=".35" stop-color="#4b4b4b"/>
      <stop offset=".44" stop-color="#2f2f2f"/>
      <stop offset=".55" stop-color="#1a1a1a"/>
      <stop offset=".66" stop-color="#0b0b0b"/>
      <stop offset=".8" stop-color="#020202"/>
      <stop offset="1" stop-color="#000"/>
    </linearGradient>
    <linearGradient id="linear-gradient-3" x1="226.42" y1="154.76" x2="445.92" y2="154.76" xlink:href="#linear-gradient-2"/>
    <linearGradient id="linear-gradient-4" x1="166.81" y1="442.79" x2="307.83" y2="442.79" xlink:href="#linear-gradient-2"/>
    <linearGradient id="linear-gradient-5" x1="76.53" y1="376.86" x2="234.41" y2="376.86" xlink:href="#linear-gradient-2"/>
    <linearGradient id="linear-gradient-6" x1="272.06" y1="483.24" x2="372.84" y2="483.24" xlink:href="#linear-gradient-2"/>
    <linearGradient id="linear-gradient-7" x1="85.73" y1="235.08" x2="116.16" y2="235.08" xlink:href="#linear-gradient-2"/>
    <linearGradient id="linear-gradient-8" x1="421.43" y1="423.39" x2="453.28" y2="423.39" xlink:href="#linear-gradient-2"/>
  </defs>
  <path class="cls-14" d="m28.57,262.49c.65-78.68,37.3-139.57,97.82-185.51,151.94-115.33,370.81-28.19,403.81,159.64,1.49,8.48,3.19,17.16.11,25.75-30.12-18.03-62.93-28.26-98.87-36.22,1.71,18.22,3.16,33.66,4.61,49.09-104.37,0-208.73,0-313.1,0,1.25-11.65,2.06-23.36,3.87-34.92,1.88-12.04-1.62-15.42-13.64-11.62-29.05,9.2-58.43,17.42-84.59,33.78Zm156.88-120.72c-30.63-.34-56.75,22.18-58.11,50.24-.34,6.98-1.81,15.12,7.97,16.99,8.89,1.71,12.85-3.59,14.07-11.81,2.91-19.63,13.68-32.22,34.01-32.67,21.51-.47,33.01,12.21,36.12,32.95,1.25,8.34,5.54,13.19,14.31,11.52,8.28-1.58,7.85-8.46,7.86-14.92.06-27.55-26.14-51.97-56.22-52.3Zm190.72,0c-31.52-.54-58.69,23.52-58.84,52.03-.03,6.43-.6,13.43,7.58,15.15,8.6,1.81,13.26-2.75,14.51-11.22,3.06-20.68,14.32-33.57,35.9-33.22,20.32.34,31.24,12.75,34.23,32.41,1.22,8.07,4.77,13.7,13.85,12.13,9.88-1.71,8.55-9.75,8.26-16.76-1.13-27.09-26.37-50.01-55.5-50.52Z"/>
  <path class="cls-14" d="m516.42,365.97c-24.08,76.38-77.12,125.12-150.17,152.34-127.34,47.45-273.26-17.27-321.47-141.04-1.37-3.52-1.5-7.52-2.21-11.29,33.28,4.36,53.75-12.4,66.16-41.13,5.23-12.11,8.54-25.05,12.73-37.61,6.46,8.18,1.31,22.36,14.1,27.27.94,4.62,1.13,9.57,2.94,13.82,25.83,60.44,100.95,100.92,165.68,87.74,57.91-11.79,100.6-42.94,119.26-101.56,12.79-4.9,7.64-19.09,14.1-27.26,2.68,8.96,5.08,18.01,8.1,26.85,13.12,38.47,32.35,52.48,70.8,51.88Z"/>
  <g class="cls-1">
    <ellipse class="cls-2" cx="280.3" cy="279.48" rx="253.94" ry="252.64"/>
    <g>
      <path class="cls-19" d="m196.54,150.26c2.25-.08,4.6.41,6.97.56,3.09.19,6.11.84,9.18,1.11,2.2.19,4.39.62,6.58.99,3.57.6,7.13,1.27,10.71,1.85,3.16.5,6.28,1.15,9.41,1.78,7.28,1.46,14.51,3.13,21.71,4.91,7.16,1.76,14.27,3.71,21.34,5.78,5.05,1.48,10.11,2.91,15.12,4.52,6.5,2.1,13,4.21,19.42,6.57,3.87,1.42,7.77,2.75,11.63,4.21,4.61,1.75,9.23,3.5,13.78,5.39,3.15,1.31,6.34,2.54,9.49,3.86,3,1.26,5.98,2.56,8.96,3.87,6.9,3.03,13.76,6.16,20.53,9.48,4.87,2.39,9.69,4.88,14.51,7.35,2.31,1.19,4.57,2.48,6.88,3.67,3.9,2.02,7.69,4.23,11.48,6.46,5.04,2.96,10.04,6,15.05,9.04,1.53.93,2.98,1.97,4.5,2.93,6.83,4.31,13.4,8.99,19.88,13.78,3.47,2.57,6.9,5.22,10.22,7.99,2.57,2.14,5.13,4.31,7.69,6.46,1.28,1.08,2.52,2.21,3.74,3.36,2.09,1.97,4.3,3.8,6.27,5.9,3.34,3.57,5.96,7.54,7.01,12.39.6,2.77.67,5.52.29,8.35-.83,6.23-3.47,11.76-6.45,17.17-.78,1.42-1.53,2.87-2.4,4.23-2.06,3.24-4.36,6.31-6.73,9.32-2.97,3.78-6.01,7.49-9.17,11.12-3.01,3.46-6.02,6.93-9.1,10.34-2.1,2.33-4.2,4.65-6.34,6.96-3.23,3.49-6.5,6.95-9.78,10.41-2.76,2.91-5.62,5.68-8.99,7.87-2.25,1.47-4.66,2.47-7.48,2.35-2.6-.1-4.83-1.07-7-2.36-3.66-2.18-6.76-5.04-9.84-7.91-2.81-2.62-5.7-5.13-8.62-7.63-4.07-3.49-8.3-6.75-12.6-9.95-8-5.95-16.28-11.47-24.8-16.66-3.24-1.98-6.43-4.03-9.8-5.77-1.8-.93-3.67-1.74-5.44-2.75-6.54-3.75-13.23-7.21-19.94-10.64-1.68-.86-3.33-1.77-5.08-2.5-1.65-.69-3.21-1.58-4.81-2.36-3.27-1.58-6.52-3.21-9.82-4.71-4.79-2.17-9.55-4.39-14.41-6.41-4.21-1.74-8.36-3.61-12.55-5.39-2.4-1.01-4.86-1.87-7.23-2.93-1.9-.85-3.69-1.97-5.71-2.51-1.87-.5-3.68-1.16-5.51-1.77-1.95-.65-3.87-1.4-5.8-2.12-1.22-.45-2.42-.97-3.65-1.39-6.73-2.29-13.43-4.67-20.22-6.79-7.5-2.34-15.02-4.6-22.61-6.63-8.06-2.15-16.21-3.89-24.36-5.63-.9-.19-1.82-.28-2.72-.46-2.65-.52-5.21-1.35-7.12-3.3-1.49-1.52-2.8-3.28-3.6-5.29-1.24-3.13-1.79-6.4-2.14-9.75-.47-4.54-.16-9.07-.26-13.6-.06-2.64.38-5.26.57-7.88.16-2.15.38-4.29.7-6.42.48-3.19.83-6.41,1.41-9.58,1.34-7.37,2.82-14.72,4.79-21.95,1.06-3.9,1.99-7.86,3.63-11.57,1.54-3.5,3-7.05,4.89-10.41,2.83-5.03,7.03-7.45,12.77-7.34.27,0,.54,0,.96,0Z"/>
      <path class="cls-19" d="m267.25,71.75c4.13-.09,8.21.46,12.31.89,2.37.25,4.74.43,7.11.73,3.33.43,6.68.65,10,1.21,2.56.43,5.15.69,7.72,1.06,3.05.45,6.1.91,9.15,1.42,3.52.59,7.05,1.19,10.56,1.86,3.03.58,6.06,1.22,9.07,1.91,5.65,1.31,11.3,2.64,16.94,4.03,2.9.72,5.76,1.56,8.62,2.42,10.46,3.15,20.78,6.73,30.87,10.89,4.42,1.82,8.8,3.72,13.1,5.81,2.49,1.21,5.04,2.31,7.49,3.59,6.69,3.49,13.32,7.08,19.75,11.03,4.11,2.53,8.22,5.06,12.2,7.79,6.04,4.13,11.97,8.4,17.74,12.91,3.28,2.57,6.57,5.13,9.72,7.85,3.08,2.65,6.18,5.27,9.17,8.02,3.31,3.05,6.55,6.17,9.9,9.16,3.78,3.38,6.61,7.4,9.09,11.73,2.91,5.09,5.3,10.41,7.5,15.83,2.49,6.12,4.72,12.33,6.73,18.61,2.36,7.36,4.53,14.78,6.29,22.31.86,3.68,1.68,7.37,2.38,11.08.4,2.17.72,4.39.71,6.58-.02,2.68-.35,5.37-.9,8.02-1.11,5.33-2.98,10.39-5.51,15.2-1.75,3.31-3.77,6.44-6.53,9.04-.52.49-1.07.92-1.72,1.2-1.13.5-2.2.45-3.26-.23-1.68-1.07-2.86-2.64-4.07-4.14-2.25-2.77-4.62-5.43-6.95-8.14-3.3-3.83-6.99-7.27-10.6-10.79-3.65-3.55-7.56-6.8-11.53-10-3.54-2.85-7.12-5.66-10.79-8.35-3.15-2.3-6.38-4.5-9.55-6.77-3.7-2.66-7.55-5.1-11.4-7.53-4.58-2.9-9.24-5.68-13.9-8.45-4.85-2.89-9.85-5.51-14.81-8.21-4.58-2.5-9.3-4.7-13.93-7.09-4.34-2.24-8.77-4.31-13.2-6.35-6.07-2.78-12.17-5.48-18.33-8.06-8.41-3.52-16.88-6.92-25.42-10.1-6.56-2.45-13.14-4.87-19.81-7.03-5.22-1.69-10.4-3.5-15.63-5.16-8.33-2.65-16.71-5.13-25.12-7.52-7.26-2.07-14.54-4.05-21.86-5.87-7.21-1.79-14.41-3.6-21.75-4.82-5.93-.98-11.84-2.07-17.74-3.22-3.57-.69-7.1-1.56-10.34-3.31-3.91-2.11-5.74-6.51-4.78-10.56.94-3.96,2.88-7.46,4.95-10.89,3.39-5.62,7.35-10.84,11.49-15.91,2.66-3.26,5.39-6.48,8.2-9.64,3.38-3.8,6.76-7.6,10.26-11.28,3.89-4.1,8.23-7.69,13.57-9.85,3.33-1.35,6.77-2.24,10.37-2.65,2.17-.25,4.33-.23,6.5-.28Z"/>
      <path class="cls-19" d="m197.65,493.82c-2.8.46-5.21-1.12-7.74-2.17-.8-.33-1.6-.68-2.39-1.04-3.41-1.55-6.86-2.98-10.19-4.73-3.77-1.98-7.59-3.86-11.26-6-2.96-1.72-5.87-3.54-8.75-5.42-1.49-.97-2.91-2.05-4.5-2.91-2.01-1.09-3.82-2.57-5.67-3.94-2.14-1.59-4.23-3.23-6.33-4.87-2.13-1.68-4.18-3.47-6.31-5.14-2.48-1.93-4.57-4.26-7.04-6.2-1.01-.79-1.89-1.74-2.79-2.65-.96-.98-2.05-1.83-2.89-2.94-1.06-1.39-1.02-2.84.17-4.12.87-.94,1.97-1.47,3.1-1.96,1.6-.69,3.29-1.2,4.73-2.22.25-.18.54-.35.83-.4,2.43-.4,4.24-2,6.31-3.12,2.49-1.34,5.05-2.57,7.59-3.82,2.03-.99,3.84-2.34,5.77-3.49,1.19-.71,2.34-1.43,3.62-2,2.03-.89,3.88-2.14,5.62-3.49,1.47-1.14,3.05-2.09,4.61-3.06,2.97-1.84,5.78-3.91,8.69-5.85,2.99-1.99,5.88-4.13,8.79-6.22,3.92-2.81,7.74-5.74,11.53-8.71,2.34-1.83,4.75-3.58,6.98-5.53,2.13-1.85,4.44-3.47,6.51-5.4,1.57-1.46,3.3-2.76,4.96-4.12.95-.78,1.85-1.63,2.75-2.45,1.43-1.32,2.94-2.56,4.36-3.9,2.04-1.94,4.25-3.7,6.32-5.62.94-.87,1.7-1.9,2.65-2.76,2.1-1.88,4.15-3.86,6.09-5.88,2.85-2.96,5.89-5.74,8.63-8.79,2.23-2.48,4.57-4.85,6.77-7.34,2.07-2.33,3.99-4.8,6.03-7.15,2.58-2.98,4.98-6.1,7.36-9.24,3.03-4.01,5.81-8.18,8.46-12.45,1.91-3.09,3.97-6.1,6.28-8.91,1.85-2.25,4.23-3.11,7.15-2.45,3.22.73,6.24,2.01,9.27,3.25,2.47,1.01,4.83,2.27,7.33,3.22,1.05.4,2.03.99,3.04,1.48,5.83,2.85,11.7,5.6,17.46,8.57,6.12,3.15,12.33,6.13,18.18,9.79,2.67,1.67,5.19,3.51,6.82,6.31,1.64,2.81,2.12,5.82,1.72,9.02-.5,4.01-2.09,7.69-3.57,11.39-1.63,4.1-3.49,8.1-5.56,11.99-3.7,6.97-7.9,13.64-12.48,20.07-2.52,3.55-5.14,7.03-7.86,10.41-1.83,2.26-3.64,4.56-5.64,6.69-1.93,2.05-3.7,4.24-5.54,6.37-.1.12-.2.23-.32.34-4.05,3.87-7.6,8.24-11.77,11.98-3.25,2.91-6.22,6.12-9.57,8.92-3.38,2.82-6.66,5.75-10.06,8.56-5.45,4.51-11,8.88-16.63,13.15-4,3.04-8.07,5.98-12.16,8.9-2.42,1.73-4.87,3.42-7.32,5.11-4.26,2.94-8.64,5.72-13,8.53-2.58,1.67-5.16,3.34-7.83,4.88-4.45,2.56-8.74,5.39-13.35,7.66-1.01.5-2.09.86-3.12,1.33-1.51.69-3.11.63-4.86.58Z"/>
      <path class="cls-19" d="m56.99,357.93c0-.8-.03-1.61,0-2.41.08-1.89.86-3.41,2.53-4.38,2.04-1.18,4.12-2.24,6.34-3.08,1.28-.49,2.36-1.46,3.6-2.1,2.77-1.43,5.47-2.98,8.3-4.28,2.34-1.08,4.6-2.33,6.88-3.55,2.89-1.54,5.75-3.12,8.62-4.69,3.24-1.78,6.45-3.62,9.73-5.34,3.43-1.8,6.7-3.86,10.1-5.71,4.05-2.21,8.04-4.5,11.93-6.98,3.48-2.22,6.95-4.48,10.38-6.78,4.9-3.29,9.64-6.81,14.2-10.55,3.49-2.86,6.91-5.79,10.01-9.06,2.47-2.6,4.75-5.38,7.2-8,1.17-1.25,2.49-2.36,3.81-3.45,1.78-1.47,3.7-2.75,5.71-3.9,2.92-1.67,6.05-2.77,9.37-3.31,4.55-.74,8.95.03,13.34,1.24,3.72,1.03,7.44,2.06,11.18,3.04,3.01.79,6.01,1.63,9.01,2.49,3.09.89,6.19,1.76,9.28,2.66,2.27.66,4.53,1.35,6.78,2.04,6.79,2.08,13.56,4.22,20.13,6.91,2.42.99,4.94,1.94,6.81,3.91,2.22,2.33,3.48,5.11,3.66,8.35.04.8.26,1.58.3,2.38.18,3.21-.64,6.27-1.56,9.28-1.34,4.37-4.03,7.97-6.77,11.57-2.3,3.03-4.76,5.92-7.3,8.74-1.47,1.63-2.91,3.3-4.47,4.85-3.4,3.37-6.74,6.79-10.19,10.11-3.24,3.12-6.54,6.19-9.9,9.19-1.96,1.75-3.93,3.47-5.89,5.22-2.67,2.39-5.51,4.6-8.19,6.98-1.68,1.5-3.39,2.95-5.13,4.38-2.69,2.21-5.36,4.44-8.07,6.62-2.92,2.35-5.87,4.66-8.82,6.97-3.13,2.44-6.3,4.81-9.4,7.27-5.21,4.13-10.7,7.88-16.02,11.87-2.06,1.54-4.23,2.93-6.37,4.38-3.42,2.31-6.81,4.67-10.29,6.89-2.85,1.82-5.85,3.39-8.72,5.18-4.83,3.01-9.97,5.47-14.96,8.19-1.03.56-2.13,1.06-3.25,1.4-2.53.76-4.9,1.92-7.36,2.84-2.64,1-5.32,1.19-8.06,1.02-1.75-.11-2.78-1.41-3.68-2.64-1.15-1.57-2.43-2.99-3.83-4.33-1.21-1.15-2.34-2.37-3.18-3.82-.71-1.23-1.82-2.11-2.81-3.09-1.42-1.4-2.7-2.88-3.63-4.68-.76-1.48-2.03-2.62-3.08-3.89-.99-1.2-1.78-2.51-2.68-3.76-.53-.74-1.05-1.49-1.58-2.22-1.93-2.64-3.6-5.42-5.07-8.33-.65-1.28-1.5-2.46-2.27-3.67-1.52-2.39-2.58-5.06-4.14-7.4-1.33-1.98-2.19-4.12-3.2-6.22-.65-1.35-1.12-2.79-1.77-4.13-1.07-2.2-1.72-4.6-3.23-6.59-.38-.5-.75-1.1-.76-1.75-.01-1.74-.78-3.28-1.66-4.63-1.48-2.26-2.27-4.58-1.92-7.27Z"/>
      <path class="cls-19" d="m421.21,393.24c.11,5.19-1.01,9.84-2.28,14.47-2.25,8.22-6.31,15.63-10.3,23.08-1.09,2.04-2.13,4.12-3.24,6.15-2.5,4.55-5.21,8.97-8.02,13.33-2.48,3.86-5.22,7.53-8.07,11.1-2.68,3.36-5.42,6.7-8.58,9.64-1.06.99-1.85,2.2-2.88,3.2-1.11,1.08-2.38,1.97-3.45,3.1-1.55,1.63-3,3.36-4.76,4.81-2.08,1.71-4.09,3.52-6.2,5.22-2.14,1.73-4.23,3.54-6.39,5.25-2.16,1.71-4.36,3.39-6.59,5-3.98,2.88-7.99,5.73-12.03,8.53-3.31,2.3-6.61,4.62-10.27,6.37-4.48,2.14-9.2,3.58-14.05,4.47-3.13.58-6.32.93-9.53,1.14-4.36.29-8.73.37-13.08.69-4.99.37-9.98.28-14.95.19-3.2-.06-6.43-.04-9.62-.33-3.18-.29-6.38-.54-9.56-.82-3.41-.3-6.78-.95-10.2-1.14-1.53-.09-3.06-.41-4.58-.73-3.08-.64-6.2-1.03-9.29-1.58-1.08-.19-2.17-.45-3.22-.74-3.47-.94-7.07-1.3-10.5-2.36-2.64-.81-5.39-1.25-7.96-2.23-1.3-.5-2.75-.75-3.77-1.94-1.28-1.5-1.18-3.83.45-4.89,1.29-.85,2.66-1.59,4.03-2.31,5.17-2.76,10.24-5.67,15.26-8.69,4.46-2.68,8.78-5.57,13.16-8.36,1.86-1.18,3.66-2.47,5.5-3.7.67-.45,1.1-1.06,1.26-1.86.7.26,1.32.21,1.97-.27,3.25-2.39,6.55-4.71,9.78-7.12,2.66-1.98,5.26-4.03,7.87-6.07,3.74-2.92,7.38-5.97,11.01-9.03,2.07-1.74,4.06-3.57,6.18-5.25,1.51-1.2,2.89-2.57,4.27-3.91,1.91-1.84,3.98-3.51,5.85-5.4,3.06-3.11,6.45-5.9,9.45-9.08,3.52-3.74,7.14-7.38,10.56-11.21,5.59-6.25,11.03-12.61,16.15-19.26,5.77-7.49,11.15-15.22,15.98-23.34,3.08-5.18,5.74-10.58,8.31-16.01,1.42-2.99,2.82-5.99,4.3-8.94,1.1-2.19,2.15-4.44,3.85-6.34,2.17-2.42,5.37-2.46,7.73-1.21,1.81.96,3.6,1.96,5.26,3.17,3.26,2.38,6.57,4.68,9.71,7.21,3.05,2.45,6.16,4.85,9.22,7.29,2.89,2.31,5.77,4.62,8.62,6.97,1.79,1.47,3.51,3.03,5.28,4.52,2.65,2.24,5.37,4.42,7.98,6.71,2.28,2.01,3.5,4.63,4.06,7.58.33,1.74.4,3.5.34,4.92Z"/>
      <path class="cls-19" d="m78.97,277.52c.49-4.83.17-9.68.45-14.51.2-3.5.33-7.02.81-10.51.23-1.65.22-3.35.34-5.02.17-2.36.58-4.68.78-7.04.18-2.08.44-4.16.81-6.23.56-3.09.87-6.23,1.4-9.34.65-3.83,1.35-7.65,2.15-11.45,1.14-5.45,2.45-10.87,3.9-16.25,1.55-5.75,3.36-11.41,5.32-17.02,1.75-5.02,3.79-9.93,5.9-14.82,1.11-2.57,2.33-5.08,3.59-7.57,2.3-4.56,4.81-9.01,7.54-13.34,2.14-3.39,4.34-6.73,6.79-9.91,2.18-2.83,4.37-5.66,6.79-8.31,2.21-2.42,4.52-4.74,6.84-7.03,3.87-3.82,8.13-7.18,12.57-10.33,5.27-3.74,10.85-6.95,16.66-9.76,5.42-2.63,11.01-4.88,16.65-7.01,4.6-1.73,9.16-3.57,13.76-5.3,3.56-1.34,7.17-2.56,10.74-3.88,5.11-1.89,10.33-3.46,15.54-5.03,2.37-.71,4.79-1.26,7.26-1.54,1.72-.19,2.59.99,1.95,2.57-.58,1.44-1.58,2.61-2.55,3.78-1.96,2.35-3.99,4.62-6.13,6.81-3.65,3.73-7.24,7.52-10.78,11.36-2.07,2.25-4.13,4.5-6.16,6.79-2.41,2.71-4.62,5.6-6.93,8.4-3.72,4.52-7.14,9.26-10.36,14.13-2.64,4-5.09,8.12-7.42,12.31-3.27,5.86-6.06,11.94-8.56,18.14-2.07,5.13-3.86,10.36-5.36,15.69-1.51,5.37-2.85,10.78-3.89,16.25-.6,3.19-1.24,6.38-1.51,9.63-.16,1.93-.52,3.84-.81,5.76-.17,1.14-.34,2.31-.35,3.44-.03,2.21-.28,4.41-.46,6.6-.25,3.05-.08,6.11-.32,9.14-.15,1.84-.39,3.69-.21,5.5.35,3.63.15,7.26.33,10.88.07,1.35.15,2.73.4,4.07.66,3.38,2.68,5.88,5.28,8.01,1.47,1.2,2.86,2.5,3.98,4.05,1.28,1.77,1.36,3.71.83,5.72-.67,2.49-2.12,4.56-3.64,6.6-2.86,3.82-6.35,7.07-9.8,10.32-6.78,6.38-14.35,11.76-22.22,16.72-6.47,4.09-13.01,8.07-19.66,11.87-4.77,2.73-9.64,5.3-14.64,7.59-2.43,1.11-4.9,2.21-7.68,2.36-2.33.12-4.26-.82-5.11-2.63-1.01-2.14-1.44-4.4-1.83-6.67-.43-2.53-.61-5.1-1.02-7.64-.35-2.18-.39-4.38-.83-6.55-.29-1.43-.24-2.93-.43-4.38-.45-3.41-.13-6.84-.37-10.24-.12-1.73-.21-3.46-.31-5.19Z"/>
      <path class="cls-19" d="m523.16,274.21c-.14,5.78-.19,10.91-.44,16.01-.17,3.55-.29,7.13-.82,10.67-.35,2.32-.46,4.7-.74,7.05-.49,4.04-1.08,8.06-1.77,12.06-1.15,6.62-2.65,13.16-4.37,19.65-2.06,7.73-4.56,15.32-7.38,22.81-3.06,8.12-6.57,16.03-10.51,23.74-3.29,6.44-6.85,12.72-10.7,18.85-2.06,3.28-4.13,6.53-6.56,9.54-1.38,1.71-2.72,3.46-4.38,4.94-.77.69-1.34,1.61-2.09,2.34-4.96,4.89-10.27,9.36-15.96,13.41-6.27,4.47-12.83,8.44-19.62,12.08-5.82,3.12-11.82,5.8-17.94,8.25-6.02,2.41-12.17,4.43-18.41,6.19-.27.07-.53.18-.8.21-1.82.26-2.52-.57-1.9-2.29.52-1.46,1.32-2.79,2.12-4.11,2.29-3.77,4.62-7.52,6.92-11.28,2.4-3.91,4.39-8.05,6.43-12.15,3.04-6.08,5.68-12.32,8-18.7,1.66-4.56,3.25-9.14,4.41-13.86.71-2.89,1.08-5.83,1.52-8.76.24-1.64.89-3.11,1.94-4.32,1.26-1.46,2.62-2.82,4.2-3.99,3.24-2.4,6.43-4.83,9.4-7.58,4.13-3.83,8.23-7.67,12.19-11.67,3.76-3.81,7.48-7.68,11.11-11.62,3.1-3.36,6.1-6.82,9.05-10.32,2.84-3.37,5.64-6.78,8.4-10.22,5.5-6.84,10.76-13.84,15.67-21.12,3.89-5.76,7.58-11.64,10.94-17.74,3.42-6.21,6.41-12.58,8.54-19.35.28-.89.64-1.76,1-2.63.15-.35.37-.68.6-.98.21-.27.5-.45.87-.37.45.09.62.41.69.83.26,1.69.5,3.38.39,4.43Z"/>
      <path class="cls-19" d="m40.54,279.56c0-2.51-.15-4.35.03-6.16.32-3.08.06-6.18.36-9.24.39-4.04.75-8.09,1.18-12.13.66-6.18,1.59-12.32,2.77-18.41.9-4.64,1.97-9.25,3.12-13.85,1.5-6,3.28-11.91,5.25-17.75,2.13-6.32,4.61-12.52,7.25-18.66,2.42-5.64,5.23-11.09,8.04-16.54,2.71-5.25,5.77-10.3,8.89-15.32,3.88-6.24,8.16-12.2,12.59-18.06,2.63-3.47,5.42-6.82,8.3-10.09,3-3.39,5.96-6.8,9.1-10.08,1.64-1.71,3.18-3.55,4.95-5.12,3.43-3.04,6.68-6.27,10.15-9.27,3.05-2.64,6.16-5.2,9.28-7.74,3-2.44,6.08-4.78,9.3-6.93,2.29-1.53,4.62-1.62,7.07-.37,1.63.83,3.25,1.66,4.67,2.83.13.11.29.18.4.29,1.92,1.92,2.63,3.79.22,6.1-1.81,1.73-4.04,2.9-6.14,4.21-3.75,2.35-7.35,4.9-10.81,7.67-5.19,4.16-9.94,8.78-14.56,13.55-2.03,2.1-3.91,4.34-5.77,6.6-2.03,2.48-4,4.99-5.91,7.55-3.27,4.39-6.15,9.03-9.01,13.68-2.06,3.35-3.85,6.84-5.6,10.33-2.15,4.29-4.22,8.62-5.99,13.09-1.95,4.93-3.86,9.86-5.53,14.89-2.55,7.7-4.71,15.51-6.48,23.42-1.4,6.22-2.65,12.48-3.52,18.8-.52,3.75-1.21,7.49-1.57,11.26-.24,2.57-.56,5.13-.78,7.71-.27,3.12-.39,6.26-.68,9.37-.87,9.47-.47,18.95-.63,28.43-.07,3.7.29,7.38.41,11.06.14,4,.56,8,.99,11.99.57,5.3,1.57,10.54,2.5,15.79.57,3.2.75,6.45.14,9.69-.57,3.03-2.22,5.36-4.61,7.23-2.01,1.58-4.24,2.81-6.53,3.93-2.54,1.24-5.06,2.52-7.65,3.66-1.5.66-2.78.44-4.02-.52-1.84-1.42-2.82-3.42-3.4-5.56-1.48-5.42-2.67-10.92-3.68-16.43-.86-4.7-1.66-9.41-2.14-14.18-.33-3.33-.67-6.67-1.02-10-.45-4.23-.46-8.46-.7-12.69-.16-2.92-.13-5.84-.24-8.06Z"/>
      <path class="cls-19" d="m489.68,156.02c-.61.13-.97-.16-1.3-.44-1.13-.97-2.26-1.95-3.35-2.96-3.53-3.27-6.93-6.67-10.58-9.79-5.75-4.91-11.72-9.55-17.82-14.03-5.75-4.22-11.69-8.18-17.7-12.03-4.84-3.1-9.8-6.02-14.83-8.81-5.04-2.79-10.08-5.57-15.28-8.06-6.44-3.09-12.92-6.08-19.53-8.8-8.05-3.31-16.19-6.35-24.45-9.06-10.1-3.31-20.36-6.11-30.72-8.51-5.49-1.27-11.02-2.38-16.57-3.37-5.27-.95-10.56-1.8-15.88-2.43-3.23-.38-6.44-.99-9.68-1.23-2.97-.22-5.93-.59-8.91-.78-3.92-.25-7.84-.41-11.75-.7-3.5-.26-6.97-.18-10.46-.23-1.34-.02-2.65-.23-3.95-.46-2.11-.38-2.99-1.91-2.47-4.02.36-1.46.94-2.85,1.63-4.15,1.84-3.46,3.63-6.94,5.85-10.19,2.17-3.18,4.95-5.48,8.82-6.23,1.41-.27,2.82-.51,4.28-.5,4.83.04,9.66-.05,14.48.05,3.37.07,6.73.28,10.09.56,1.81.15,3.64.24,5.45.41,2.47.23,4.95.48,7.41.79,2.85.36,5.69.75,8.52,1.21,3.22.52,6.43,1.08,9.63,1.72,6.08,1.22,12.11,2.64,18.07,4.34,6.55,1.87,13.02,3.99,19.4,6.39,8.57,3.22,16.93,6.88,25.07,11.05,6.01,3.08,11.88,6.41,17.61,9.98,7,4.36,13.78,9.03,20.3,14.06,3.54,2.73,6.96,5.6,10.37,8.5,6.5,5.53,12.42,11.66,18.37,17.74,2.93,2.99,5.64,6.19,8.31,9.43,2.77,3.36,5.52,6.74,8.15,10.21,4.61,6.07,8.84,12.4,12.84,18.89.25.41.56.83.55,1.47Z"/>
      <path class="cls-19" d="m162.08,89.28c-1.2.05-2.16-.4-2.93-1.14-2.15-2.07-4.4-4.01-6.8-5.8-1.66-1.23-1.71-3.2-.29-4.78,1.53-1.71,3.37-3.02,5.34-4.15,6.01-3.43,12.05-6.8,18.31-9.77,4.65-2.21,9.34-4.32,14.11-6.27,6.31-2.58,12.7-4.92,19.19-6.99,4.32-1.38,8.7-2.58,13.09-3.72,4.93-1.27,9.89-2.4,14.88-3.32,4.07-.75,8.12-1.58,12.28-1.86,1.45-.1,2.84-.13,4.26.08,1.88.28,3.73,1.57,2.86,4.18-.57,1.73-1.4,3.35-2.08,5.04-1.03,2.56-2.06,5.1-3.47,7.5-1.84,3.13-4.66,4.76-7.98,5.78-1.86.57-3.8.74-5.71.96-4.19.48-8.27,1.48-12.34,2.53-7.4,1.9-14.72,4.09-22,6.39-8.29,2.61-16.49,5.49-24.55,8.73-2.52,1.01-5.01,2.06-7.45,3.26-2.33,1.15-4.69,2.27-7.19,3.01-.53.16-1.05.38-1.54.33Z"/>
      <path class="cls-19" d="m348.98,509.1c-.7,0-1.15.02-1.59,0-1.42-.07-2-.76-1.74-2.16.29-1.6,1.25-2.84,2.5-3.79,1.93-1.47,3.89-2.92,6.1-3.98.44-.21.93-.43,1.26-.78,2-2.09,4.47-3.59,6.7-5.38,1.38-1.1,2.55-2.43,3.93-3.55,4.1-3.3,7.8-7.02,11.5-10.74,4.01-4.03,8.77-6.81,14.2-8.55,5.74-1.84,11.45-3.76,17.12-5.8,5.25-1.89,10.45-3.93,15.54-6.23,4.29-1.93,8.58-3.85,12.86-5.79,5.57-2.53,10.58-5.99,15.43-9.66,2.99-2.26,6.07-4.41,8.93-6.84.47-.4,1.04-.64,1.68-.62.51,0,1.05-.01,1.28.55.25.6.19,1.2-.31,1.68-.47.46-1.05.78-1.52,1.27-4.08,4.27-8.13,8.57-12.44,12.61-2.25,2.11-4.7,4-7.01,6.05-2.76,2.46-5.56,4.86-8.51,7.1-3.12,2.37-6.27,4.69-9.39,7.06-3.07,2.34-6.39,4.33-9.5,6.64-1.24.92-2.51,1.96-4.07,2.49-.66.22-1.25.69-1.8,1.14-2.3,1.89-5.05,3.09-7.55,4.69-2.46,1.58-5.05,3.1-7.87,4.1-1.23.44-2.38,1.11-3.52,1.75-.99.56-1.82,1.46-3.14,1.23-.22-.04-.49.21-.73.34-1.58.85-3.02,1.94-4.83,2.37-.62.15-1.16.62-1.75.94-3.05,1.65-6.15,3.27-9.3,4.66-3.83,1.7-7.62,3.57-11.73,4.6-.91.23-1.76.66-2.66.95-1.47.47-2.91.96-4.5,1.08-1.29.1-2.52.82-3.63.58Z"/>
    </g>
    <path class="cls-10" d="m407.5,341.18c-4.75-3.03-9.52-6.01-14.23-9.09-8.18-5.35-16.46-10.54-24.9-15.47-7.82-4.56-15.76-8.93-23.81-13.06-9.05-4.64-18.19-9.08-27.46-13.26-8.87-4-17.83-7.79-26.86-11.43-10-4.03-20.1-7.79-30.27-11.36-12.62-4.43-25.35-8.51-38.18-12.27-6.63-1.94-13.31-3.71-19.93-5.66-5.75-1.69-11.3-3.86-16.16-7.51-5.61-4.22-8.64-9.72-8.7-16.81-.04-5.27,1.26-10.24,2.96-15.15.89-2.55,1.87-5.06,3.38-7.34.89-1.34,1.83-2.63,3.3-3.41,1.57-.83,2.96-.41,3.73,1.17.7,1.43.8,2.98.6,4.52-.24,1.8-.72,3.55-1.45,5.23-1.16,2.69-2.06,5.49-2.36,8.39-.66,6.32,1.72,11.28,7.06,14.82,2.5,1.66,5.21,2.91,7.93,4.14,4.83,2.19,9.65,4.42,14.62,6.29,9.52,3.58,19.05,7.12,28.58,10.66,10.68,3.97,21.32,8.01,31.92,12.17,12.56,4.92,25.03,10.05,37.38,15.47,10.78,4.74,21.45,9.73,31.91,15.13,8.55,4.42,16.95,9.1,25.05,14.3,5.82,3.74,11.5,7.71,16.67,12.3,5.33,4.73,10.68,9.43,16.17,13.97,1.15.95,2.28,1.92,3.42,2.88.07.32-.02.48-.38.37Z"/>
    <path class="cls-5" d="m401.85,337.51c.13-.12.25-.25.38-.37.35.04.58.22.68.56.15.15.14.3-.02.44-.39-.13-.81-.22-1.04-.62Z"/>
    <path class="cls-3" d="m402.89,338.14c0-.15.01-.29.02-.44.2.16.4.33.6.49.01.07.03.14.04.2-.27.04-.51.02-.66-.26Z"/>
    <path class="cls-17" d="m403.55,338.39c-.08-.06-.09-.12-.04-.2.09.04.2.05.28.11.11.09.21.21.31.32-.06.06-.12.16-.18.16-.25,0-.35-.16-.36-.39Z"/>
    <path class="cls-13" d="m226.43,118.38c.12-3.63,1.11-7.05,2.78-10.26,2.27-4.39,5.15-8.35,8.61-11.89.58-.59,1.21-1.14,1.85-1.66.34-.28.73-.5,1.12-.7,1.82-.9,2.91-.31,3.06,1.69.14,1.96-.28,3.85-.89,5.68-.68,2.03-1.48,4.03-2.28,6.02-.89,2.2-1.58,4.45-2.1,6.77-.37,1.65-.39,3.3-.16,4.93.31,2.21,1.7,3.77,3.52,4.97,2.71,1.78,5.76,2.8,8.82,3.75,5.54,1.72,11.1,3.35,16.64,5.06,4.22,1.3,8.45,2.59,12.64,3.98,6.02,2,12,4.13,18.02,6.13,6.34,2.11,12.64,4.34,18.92,6.65,6.58,2.42,13.14,4.9,19.71,7.36,4.19,1.57,8.4,3.09,12.56,4.74,9.47,3.76,18.84,7.73,28.12,11.92,7.67,3.47,15.28,7.05,22.78,10.88,9.27,4.73,18.36,9.78,27.08,15.46,6.08,3.96,11.91,8.23,17.34,13.05.5.44,1.03.86,1.23,1.52.13.43.22.9-.13,1.25-.37.37-.84.47-1.37.28-1.1-.4-2.05-1.08-3.04-1.67-8.7-5.27-17.58-10.24-26.56-15.01-6.45-3.42-12.97-6.7-19.54-9.88-5.28-2.55-10.6-5.01-15.93-7.44-9.02-4.09-18.15-7.95-27.37-11.57-3.92-1.54-7.85-3.02-11.76-4.58-3.43-1.37-6.88-2.7-10.36-3.96-12.27-4.42-24.64-8.51-37.13-12.28-9.16-2.76-18.36-5.36-27.63-7.71-6.1-1.55-12.24-2.96-18.33-4.57-4.68-1.24-9.11-3.08-13.05-5.96-3.31-2.42-5.75-5.48-6.73-9.52-.27-1.12-.49-2.26-.45-3.42Z"/>
    <path class="cls-18" d="m307.83,400.4c-.1,1.36-.87,2.28-1.62,3.17-3.8,4.44-7.81,8.69-12.1,12.67-2.51,2.33-4.89,4.79-7.43,7.07-2.46,2.2-4.8,4.52-7.32,6.65-2.77,2.33-5.41,4.8-8.17,7.14-3.29,2.8-6.6,5.58-9.98,8.26-3.04,2.41-6.1,4.8-9.11,7.22-3.19,2.57-6.46,5.05-9.76,7.47-2.81,2.06-5.66,4.08-8.51,6.09-4.24,2.98-8.56,5.84-12.9,8.68-2.32,1.53-4.78,2.87-7.22,4.21-2.62,1.44-5.27,2.86-8.1,3.85-3.18,1.12-6.36,2.27-9.81,2.3-2.01.01-3.95-.4-5.73-1.23-4.73-2.21-9.42-4.59-13.32-8.06-3.11-2.77-6.33-5.53-8.62-9.11-.48-.74-.81-1.53-1.14-2.35-.32-.79-.22-1.31.36-1.91.57-.59,1.05-.53,1.76-.27,1.57.57,2.93,1.43,4.26,2.42,2.16,1.61,3.85,3.73,6.14,5.22,2.48,1.61,5.14,2.7,7.98,3.27,1.6.32,3.32.04,4.98.1,2.89.1,5.64-.61,8.38-1.34,4.37-1.17,8.67-2.61,12.84-4.34,2.51-1.05,4.98-2.23,7.43-3.42,4.67-2.27,9.21-4.79,13.61-7.52,5.29-3.27,10.52-6.63,15.59-10.26,3.1-2.22,6.23-4.41,9.35-6.6,2.63-1.85,5.15-3.87,7.71-5.83,2.86-2.19,5.75-4.34,8.57-6.58,2.27-1.81,4.44-3.74,6.67-5.59,2.56-2.13,5.24-4.15,7.69-6.4,2.48-2.27,4.99-4.51,7.38-6.88,2.38-2.36,4.98-4.5,7.47-6.75.76-.68,1.76-.86,2.67-1.32Z"/>
    <path class="cls-7" d="m180.39,372.89c2.46-2.05,5.11-3.85,7.68-5.76,2.66-1.98,5.43-3.82,8.03-5.88,4.92-3.91,10.07-7.53,14.95-11.49,1.24-1.01,2.01-2.42,3.4-3.27,4.24-2.58,7.3-6.54,11.17-9.57,2.09-1.64,4.36-3.01,6.47-4.6.65-.49,1.48-.12,2.31-.22-.16.98-.84,1.64-.67,2.51.02.09-.05.29-.1.29-1.62.2-1.45,2.17-2.9,2.79-1.16.49-1.9,1.93-2.83,2.95-4.62,5.06-9.6,9.76-14.61,14.43-3.36,3.13-6.74,6.23-10.19,9.25-2.43,2.13-4.99,4.15-7.52,6.2-4.77,3.86-9.55,7.7-14.44,11.4-4.89,3.7-9.81,7.37-14.82,10.92-5.1,3.61-10.24,7.16-15.45,10.62-.32.21-.64.4-.82.78-.11.23-.34.48-.58.58-3.58,1.51-6.56,3.98-9.85,5.96-4.6,2.76-9.1,5.67-14.02,7.86-2.98,1.33-6.04,2.53-9.26,2.87-4.62.48-9.11-.09-13.24-2.63-4.87-2.99-8.62-7.05-11.83-11.67-3.67-5.26-7.12-10.66-10.53-16.09-1.35-2.15-2.45-4.44-3.34-6.83-.47-1.25-.58-2.56-.84-3.85-.13-.66.03-1.31.39-1.9.5-.8,1.13-1,2.09-.77,1.06.26,1.91.87,2.74,1.5,3.08,2.34,5.44,5.34,7.63,8.46,2.78,3.98,5.5,8.01,8.9,11.52,1.66,1.72,3.39,3.37,5.36,4.69,4.33,2.9,9.04,4.78,14.38,4.35,3.47-.28,6.79-1.23,9.97-2.71,6.18-2.89,12.05-6.32,17.85-9.88,10-6.14,19.74-12.69,29.36-19.4,1.35-.94,2.64-2.01,4.13-2.75.14-.07.25-.19.4-.26h.02c.12-.26.47-.18.6-.41Z"/>
    <path class="cls-16" d="m180.39,372.89c-.08.32-.28.44-.6.4.1-.28.31-.4.6-.4Z"/>
    <path class="cls-16" d="m179.77,373.3c-.06.21-.18.3-.4.26.06-.19.19-.28.4-.26Z"/>
    <path class="cls-4" d="m349.98,482.27c-.25.22-.31.2-.73.63-.09.07-.23.22-.25.25-.31.36-.36.41-.94.85-.32.29-.44.45-.91.87-.6.55-1.39,1.14-2.06,1.69-3.07,2.5-6.09,5.07-9.45,7.2-.18.21-.23.23-.42.4-1.2.74-2.18,1.8-3.52,2.31-.19.11-.22.15-.47.34-3.34,2.09-6.74,4.07-10.28,5.79-5.68,2.76-11.61,4.92-17.84,6.03-4.9.88-9.85,1.14-14.86.58-3.14-.35-6.21-.9-9.23-1.79-2.18-.64-4.28-1.49-5.92-3.17-1.49-1.53-1.41-2.67.32-3.96,1.54-1.15,3.36-1.67,5.21-2.03,3.95-.76,7.95-.7,11.92-.28,6.25.66,12.45.61,18.66-.4,12.47-2.03,23.4-7.48,33.52-14.77,5.57-4.01,10.67-8.59,15.63-13.32,3.44-3.28,6.7-6.75,10.37-9.79,1.23-1.02,2.48-2.02,4.09-2.74.03.74-.34,1.19-.65,1.66-1.9,2.85-4.17,5.42-6.46,7.97-4.69,5.23-10,9.85-14.86,14.9-.14.15-.24.26-.43.36-.2.13-.29.21-.45.4Z"/>
    <path class="cls-12" d="m108.53,160.97c-.03,2.01-.81,3.67-1.44,5.35-1.48,3.91-3.28,7.7-4.55,11.69-2.32,7.32-3.9,14.81-5.2,22.36-1.37,7.93-2.37,15.91-3.15,23.91-.62,6.36-1.01,12.74-1.32,19.12-.36,7.49-.38,14.98-.19,22.46.18,7.17.67,14.32,2.34,21.33.36,1.5.84,2.97,1.46,4.39.34.76.75,1.47,1.3,2.11,1.07,1.25,2.28,1.62,3.86,1.09,2.78-.93,5.59-1.76,8.47-2.35,1.24-.25,2.48-.57,3.78-.46.44.04.88.06,1.3.22.9.33,1.12.71.86,1.6-.22.76-.66,1.4-1.14,2-2.27,2.82-5.08,5.07-8,7.18-3.06,2.21-6.46,3.84-9.85,5.45-3.54,1.67-5.95.64-7.38-3-.98-2.48-1.3-5.12-1.62-7.74-.79-6.34-1.36-12.7-1.78-19.08-.46-7.1-.64-14.21-.52-21.33.1-6.33.42-12.67,1.01-18.98,1.02-11.04,2.66-21.98,5.09-32.8,2.66-11.86,6.13-23.46,10.7-34.72,1.18-2.92,2.56-5.75,4.4-8.32.37-.52.66-1.15,1.58-1.47Z"/>
    <path class="cls-15" d="m452.76,429.21c-.82.41-.72.37-1.48.73-.1.05-1.16.63-1.22.66-.19.11-.2.1-.34.2-.1.07-.19.1-.31.15-.7.22-1.18.41-1.76.69-3.84,1.84-7.68,3.63-11.95,4.29-1.87.29-3.69.48-5.46-.43-.73-.37-1.25-.93-1.27-1.7-.07-2.02-.34-4.14.42-6.03.95-2.37,1.48-4.86,2.44-7.23,1.96-4.82,3.67-9.76,5.64-14.58.29-.71.42-1.31-.18-1.97-.63.44-1.16.87-1.51,1.64-.54,1.18-.9,2.47-1.55,3.56-.96,1.65-1.54,3.46-2.4,5.15-1.32,2.61-2.47,5.31-3.75,7.95-.89,1.85-1.72,3.72-2.58,5.58-1.34,2.9-2.45,5.91-3.66,8.88-.62,1.51-.55,2.96.53,4.23,1.14,1.35,2.64,2.13,4.38,1.68,1.83-.48,3.6-1.23,5.36-1.96,2.16-.9,4.31-1.81,6.43-2.8,3.02-1.41,6-2.87,8.89-4.52.72-.42,1.42-.77,2.29-1.23,1.44-.9,2.28-1.84,3.59-2.75-.08-.31-.26-.32-.52-.19Z"/>
  </g>
  <path class="cls-8" d="m516.42,365.97c-38.45.6-57.68-13.41-70.8-51.88-3.01-8.84-5.41-17.89-8.1-26.85-.5-4-.99-8-1.49-12-1.45-15.44-2.9-30.87-4.61-49.09,35.94,7.96,68.75,18.18,98.87,36.22,7.34,9.08,16.17,17.34,21.75,27.4,16.21,29.22,3.73,54.95-35.64,76.21Z"/>
  <path class="cls-8" d="m121.46,287.24c-4.18,12.56-7.5,25.5-12.73,37.61-12.41,28.73-32.88,45.49-66.16,41.13-51.93-28.04-56.05-58.52-14-103.49,26.17-16.36,55.54-24.58,84.59-33.78,12.02-3.81,15.52-.42,13.64,11.62-1.81,11.56-2.62,23.27-3.87,34.92-.5,4-.99,8-1.49,12Z"/>
  <path class="cls-9" d="m130.65,310.5l.98,4.8c.28,1.36.49,2.77.71,4.26.51,3.42,1.03,6.96,2.48,10.34,12.89,30.17,37.77,56.25,70.05,73.43,23.83,12.69,49.32,19.24,73.91,19.24,8.89,0,17.67-.86,26.2-2.6,63.22-12.88,104.35-47.96,122.26-104.26l1.66-5.21H130.65Z"/>
  <path class="cls-11" d="m121.46,285.49c.5-4.92.99-9.83,1.49-14.75,104.37,0,208.73,0,313.1,0,.5,4.92.99,9.83,1.49,14.75-6.46,10.05-1.31,27.48-14.11,33.51-95.97,0-191.92,0-287.87,0-12.79-6.03-7.64-23.46-14.1-33.51Z"/>
  <g>
    <path class="cls-6" d="m232.36,149.66c-12.7-11.82-29.75-18.7-46.79-18.89-.27,0-.54,0-.8,0h0c-17.35,0-33.98,6.18-46.82,17.39-13.13,11.47-20.8,26.85-21.59,43.32-.03.57-.06,1.16-.1,1.74-.24,3.92-.55,8.8,1.14,13.63,2.38,6.85,8.01,11.44,15.84,12.95,1.79.34,3.54.52,5.22.52,4.37,0,18.85-1.55,21.81-21.52,3.03-20.47,14.79-23.09,23.37-23.28.31,0,.61-.01.91-.01,9.57,0,20.96,2.68,24.09,23.59,1.99,13.29,10.2,21.22,21.94,21.22,1.7,0,3.48-.18,5.3-.52,7.25-1.38,12.61-5.67,15.09-12.07,1.73-4.46,1.72-9.04,1.72-12.72v-.91c.03-16.19-7.37-32.38-20.31-44.43Z"/>
    <path class="cls-6" d="m442.74,193.46c-.03-.55-.06-1.09-.08-1.63-.67-16.06-8.07-31.29-20.84-42.91-12.55-11.41-28.69-17.86-45.46-18.15-.41,0-.82-.01-1.23-.01h0c-37.11,0-68.61,28.85-68.79,62.98v1.05c-.05,3.65-.09,8.18,1.55,12.63,2.37,6.42,7.62,10.79,14.77,12.29,1.98.42,3.92.63,5.78.63,9.07,0,19.58-5.52,21.88-21,3.13-21.13,14.55-23.83,24.15-23.83.23,0,.46,0,.69,0,8.62.14,20.44,2.69,23.53,23.06,2.98,19.62,16.27,21.74,21.85,21.74,1.53,0,3.12-.14,4.75-.42,10.71-1.85,14.72-8.75,16.17-12.71,1.77-4.85,1.51-9.77,1.29-13.72Z"/>
  </g>
</svg>