<?xml version="1.0" encoding="UTF-8"?>
<svg xmlns="http://www.w3.org/2000/svg" xmlns:xlink="http://www.w3.org/1999/xlink" width="150px" height="150px" viewBox="0 0 150 150" version="1.1">
<defs>
<filter id="alpha" filterUnits="objectBoundingBox" x="0%" y="0%" width="100%" height="100%">
  <feColorMatrix type="matrix" in="SourceGraphic" values="0 0 0 0 1 0 0 0 0 1 0 0 0 0 1 0 0 0 1 0"/>
</filter>
<mask id="mask0">
  <g filter="url(#alpha)">
<rect x="0" y="0" width="150" height="150" style="fill:rgb(0%,0%,0%);fill-opacity:0.360784;stroke:none;"/>
  </g>
</mask>
<clipPath id="clip1">
  <rect x="0" y="0" width="150" height="150"/>
</clipPath>
<g id="surface5" clip-path="url(#clip1)">
<path style=" stroke:none;fill-rule:nonzero;fill:rgb(79.215686%,79.215686%,74.117647%);fill-opacity:1;" d="M 76.085938 41.992188 C 79.566406 45.789062 82.121094 50.53125 83.273438 55.933594 C 86.726562 72.082031 76.429688 87.96875 60.289062 91.417969 C 51.164062 93.367188 42.128906 90.929688 35.367188 85.527344 C 42.222656 94.804688 54.082031 99.742188 66.09375 97.175781 C 82.464844 93.679688 92.898438 77.566406 89.402344 61.195312 C 87.640625 52.945312 82.671875 46.207031 76.085938 41.992188 Z M 76.085938 41.992188 "/>
</g>
</defs>
<g id="surface1">
<path style=" stroke:none;fill-rule:nonzero;fill:rgb(61.568627%,18.039216%,20.784314%);fill-opacity:1;" d="M 149.90625 75.09375 C 149.90625 116.464844 116.371094 150 75 150 C 33.628906 150 0.09375 116.464844 0.09375 75.09375 C 0.09375 33.722656 33.628906 0.1875 75 0.1875 C 116.371094 0.1875 149.90625 33.722656 149.90625 75.09375 Z M 149.90625 75.09375 "/>
<path style=" stroke:none;fill-rule:nonzero;fill:rgb(61.568627%,18.039216%,20.784314%);fill-opacity:1;" d="M 141.90625 75.09375 C 141.90625 112.046875 111.953125 142 75 142 C 38.046875 142 8.09375 112.046875 8.09375 75.09375 C 8.09375 38.140625 38.046875 8.1875 75 8.1875 C 111.953125 8.1875 141.90625 38.140625 141.90625 75.09375 Z M 141.90625 75.09375 "/>
<path style=" stroke:none;fill-rule:nonzero;fill:rgb(0%,42.352941%,23.137255%);fill-opacity:1;" d="M 106.070312 73.929688 C 106.070312 100.996094 84.128906 122.941406 57.058594 122.941406 C 29.988281 122.941406 8.042969 100.996094 8.042969 73.929688 C 8.042969 46.859375 29.988281 24.914062 57.058594 24.914062 C 84.128906 24.914062 106.070312 46.859375 106.070312 73.929688 Z M 106.070312 73.929688 "/>
<path style=" stroke:none;fill-rule:nonzero;fill:rgb(99.607843%,98.823529%,90.980392%);fill-opacity:1;" d="M 31.550781 106.476562 C 34.25 110.195312 37.414062 113.566406 40.957031 116.484375 C 64.859375 106.195312 91.375 103.441406 116.945312 108.453125 C 118.230469 106.839844 119.417969 105.15625 120.515625 103.40625 C 91.921875 93.316406 60.125 94.21875 31.550781 106.476562 Z M 31.550781 106.476562 "/>
<path style=" stroke:none;fill-rule:nonzero;fill:rgb(99.607843%,98.823529%,90.980392%);fill-opacity:1;" d="M 45.765625 120.023438 C 51.316406 123.644531 57.574219 126.269531 64.28125 127.640625 C 74.46875 125.414062 84.898438 124.4375 95.335938 124.710938 C 99.492188 123 103.394531 120.785156 106.953125 118.136719 C 86.894531 113.59375 65.824219 114.1875 45.765625 120.023438 Z M 45.765625 120.023438 "/>
<path style=" stroke:none;fill-rule:nonzero;fill:rgb(0%,42.352941%,23.137255%);fill-opacity:1;" d="M 130.796875 111.96875 C 126.226562 110.539062 121.605469 109.367188 116.945312 108.453125 C 114.046875 112.089844 110.683594 115.347656 106.945312 118.132812 C 112.058594 119.289062 117.105469 120.78125 122.054688 122.609375 C 125.3125 119.378906 128.25 115.8125 130.796875 111.96875 Z M 130.796875 111.96875 "/>
<path style=" stroke:none;fill-rule:nonzero;fill:rgb(0%,42.352941%,23.137255%);fill-opacity:1;" d="M 75 128.710938 C 71.328125 128.710938 67.746094 128.34375 64.277344 127.632812 C 57.195312 129.179688 50.226562 131.332031 43.453125 134.078125 C 52.855469 139.132812 63.597656 141.996094 75 141.996094 C 90.90625 141.996094 105.535156 136.410156 117.023438 127.105469 C 109.839844 125.695312 102.578125 124.890625 95.328125 124.703125 C 89.054688 127.289062 82.195312 128.710938 75 128.710938 Z M 75 128.710938 "/>
<path style=" stroke:none;fill-rule:nonzero;fill:rgb(0%,42.352941%,23.137255%);fill-opacity:1;" d="M 40.957031 116.492188 C 36.609375 118.367188 32.351562 120.480469 28.195312 122.855469 C 29.085938 123.726562 29.996094 124.570312 30.933594 125.390625 C 35.796875 123.277344 40.746094 121.484375 45.769531 120.023438 C 44.097656 118.933594 42.484375 117.757812 40.957031 116.492188 Z M 40.957031 116.492188 "/>
<path style=" stroke:none;fill-rule:nonzero;fill:rgb(0%,42.352941%,23.137255%);fill-opacity:1;" d="M 20.882812 111.671875 C 24.382812 109.757812 27.9375 108.035156 31.554688 106.484375 C 30.84375 105.503906 30.164062 104.496094 29.519531 103.46875 C 26.40625 105.199219 23.355469 107.054688 20.375 109.0625 C 19.0625 109.945312 18.054688 109.273438 18.105469 107.515625 C 18.207031 104.199219 18.300781 100.875 18.398438 97.558594 C 18.453125 95.800781 19.558594 93.761719 20.890625 93.039062 C 21.898438 92.492188 22.910156 91.957031 23.929688 91.433594 C 22.277344 86.285156 21.382812 80.792969 21.382812 75.105469 C 21.382812 45.539062 45.433594 21.484375 75 21.484375 C 104.566406 21.484375 128.617188 45.539062 128.617188 75.105469 C 128.617188 79.324219 128.125 83.429688 127.203125 87.375 C 131.351562 89.121094 135.414062 91.113281 139.375 93.339844 C 141.023438 87.539062 141.902344 81.421875 141.902344 75.105469 C 141.902344 38.214844 111.890625 8.195312 74.992188 8.195312 C 38.097656 8.195312 8.09375 38.203125 8.09375 75.09375 C 8.09375 89.03125 12.382812 101.988281 19.699219 112.71875 C 20.058594 112.269531 20.460938 111.902344 20.882812 111.671875 Z M 20.882812 111.671875 "/>
<path style=" stroke:none;fill-rule:nonzero;fill:rgb(0%,42.352941%,23.137255%);fill-opacity:1;" d="M 120.507812 103.414062 C 124.71875 104.898438 128.851562 106.625 132.902344 108.578125 C 135.195312 104.632812 137.09375 100.425781 138.550781 96.015625 C 134.390625 94.421875 130.171875 93.054688 125.917969 91.90625 C 124.570312 95.984375 122.75 99.839844 120.507812 103.414062 Z M 120.507812 103.414062 "/>
<path style=" stroke:none;fill-rule:nonzero;fill:rgb(0%,42.352941%,23.137255%);fill-opacity:1;" d="M 20.882812 93.027344 C 19.554688 93.75 18.445312 95.789062 18.390625 97.546875 C 18.292969 100.863281 18.199219 104.1875 18.101562 107.5 C 18.046875 109.257812 19.054688 109.933594 20.367188 109.046875 C 23.347656 107.046875 26.402344 105.1875 29.515625 103.460938 C 27.175781 99.726562 25.289062 95.6875 23.917969 91.417969 C 22.90625 91.945312 21.890625 92.480469 20.882812 93.027344 Z M 20.882812 93.027344 "/>
<path style=" stroke:none;fill-rule:nonzero;fill:rgb(0%,42.352941%,23.137255%);fill-opacity:1;" d="M 125.917969 91.910156 C 130.171875 93.058594 134.390625 94.429688 138.550781 96.023438 C 138.84375 95.132812 139.125 94.238281 139.382812 93.328125 C 135.421875 91.101562 131.355469 89.109375 127.207031 87.363281 C 126.835938 88.90625 126.410156 90.421875 125.917969 91.910156 Z M 125.917969 91.910156 "/>
<path style=" stroke:none;fill-rule:nonzero;fill:rgb(0%,42.352941%,23.137255%);fill-opacity:1;" d="M 116.945312 108.457031 C 121.605469 109.371094 126.226562 110.542969 130.796875 111.972656 C 131.53125 110.867188 132.234375 109.742188 132.902344 108.585938 C 128.855469 106.625 124.71875 104.898438 120.511719 103.417969 C 119.421875 105.164062 118.222656 106.847656 116.945312 108.457031 Z M 116.945312 108.457031 "/>
<path style=" stroke:none;fill-rule:nonzero;fill:rgb(0%,42.352941%,23.137255%);fill-opacity:1;" d="M 31.550781 106.476562 C 27.945312 108.03125 24.382812 109.75 20.882812 111.667969 C 20.453125 111.898438 20.054688 112.265625 19.703125 112.71875 C 22.199219 116.375 25.042969 119.765625 28.195312 122.847656 C 32.347656 120.480469 36.609375 118.359375 40.957031 116.484375 C 37.414062 113.574219 34.25 110.203125 31.550781 106.476562 Z M 31.550781 106.476562 "/>
<path style=" stroke:none;fill-rule:nonzero;fill:rgb(0%,42.352941%,23.137255%);fill-opacity:1;" d="M 45.765625 120.023438 C 40.746094 121.484375 35.789062 123.269531 30.929688 125.390625 C 34.75 128.742188 38.945312 131.660156 43.460938 134.085938 C 50.226562 131.335938 57.199219 129.1875 64.28125 127.640625 C 57.570312 126.269531 51.308594 123.644531 45.765625 120.023438 Z M 45.765625 120.023438 "/>
<path style=" stroke:none;fill-rule:nonzero;fill:rgb(0%,42.352941%,23.137255%);fill-opacity:1;" d="M 95.332031 124.707031 C 102.585938 124.898438 109.84375 125.695312 117.03125 127.109375 C 118.78125 125.691406 120.457031 124.191406 122.054688 122.609375 C 117.109375 120.785156 112.0625 119.289062 106.945312 118.132812 C 103.382812 120.785156 99.484375 123 95.332031 124.707031 Z M 95.332031 124.707031 "/>
<path style=" stroke:none;fill-rule:nonzero;fill:rgb(99.607843%,98.823529%,90.980392%);fill-opacity:1;" d="M 90.082031 78.269531 C 67.691406 76.421875 44.753906 80.761719 23.929688 91.421875 C 25.300781 95.695312 27.1875 99.734375 29.523438 103.464844 C 48.257812 93.070312 69.128906 87.679688 90.191406 87.40625 C 89.378906 86.003906 88.914062 84.421875 88.914062 82.746094 C 88.910156 81.140625 89.332031 79.625 90.082031 78.269531 Z M 90.082031 78.269531 "/>
<path style=" stroke:none;fill-rule:nonzero;fill:rgb(99.607843%,98.823529%,90.980392%);fill-opacity:1;" d="M 127.203125 87.363281 C 122.527344 85.394531 117.75 83.722656 112.894531 82.367188 C 112.898438 82.488281 112.90625 82.617188 112.90625 82.746094 C 112.90625 84.984375 112.078125 87.058594 110.683594 88.75 C 115.792969 89.496094 120.878906 90.550781 125.914062 91.910156 C 126.410156 90.421875 126.835938 88.90625 127.203125 87.363281 Z M 127.203125 87.363281 "/>
<path style=" stroke:none;fill-rule:nonzero;fill:rgb(99.607843%,98.823529%,90.980392%);fill-opacity:1;" d="M 112.898438 82.367188 C 105.433594 80.273438 97.789062 78.902344 90.082031 78.269531 C 89.332031 79.621094 88.910156 81.140625 88.910156 82.746094 C 88.910156 84.421875 89.375 86.003906 90.1875 87.402344 C 97.023438 87.316406 103.882812 87.753906 110.691406 88.75 C 112.085938 87.058594 112.910156 84.984375 112.910156 82.746094 C 112.910156 82.617188 112.90625 82.492188 112.898438 82.367188 Z M 112.898438 82.367188 "/>
<path style=" stroke:none;fill-rule:nonzero;fill:rgb(99.607843%,98.823529%,90.980392%);fill-opacity:1;" d="M 108.691406 81.09375 C 109.109375 74.90625 105.128906 73.039062 105.09375 73.019531 C 103.792969 72.597656 102.382812 72.367188 100.910156 72.367188 C 96.136719 72.367188 92.015625 74.777344 90.082031 78.269531 C 97.789062 78.902344 105.429688 80.273438 112.898438 82.367188 Z M 108.691406 81.09375 "/>
<path style=" stroke:none;fill-rule:nonzero;fill:rgb(99.607843%,98.823529%,90.980392%);fill-opacity:1;" d="M 112.835938 81.664062 L 112.890625 82.367188 C 112.886719 82.128906 112.863281 81.894531 112.835938 81.664062 Z M 112.835938 81.664062 "/>
<path style=" stroke:none;fill-rule:nonzero;fill:rgb(79.215686%,79.215686%,74.117647%);fill-opacity:1;" d="M 108.691406 81.09375 L 112.898438 82.367188 L 112.839844 81.664062 C 112.359375 77.683594 109.285156 74.367188 105.09375 73.019531 C 105.128906 73.039062 109.105469 74.90625 108.691406 81.09375 Z M 108.691406 81.09375 "/>
<path style=" stroke:none;fill-rule:nonzero;fill:rgb(99.607843%,98.823529%,90.980392%);fill-opacity:1;" d="M 108.671875 44.773438 L 104.796875 44.773438 L 104.796875 38.378906 C 102.789062 36.101562 100.910156 34.8125 100.910156 34.8125 L 98.59375 34.8125 C 97.730469 34.8125 97.03125 35.601562 97.03125 36.574219 L 97.03125 44.765625 L 88.414062 44.765625 C 87.546875 44.765625 86.847656 45.554688 86.847656 46.53125 L 86.847656 51.75 C 86.847656 52.722656 87.550781 53.515625 88.414062 53.515625 L 97.03125 53.515625 L 97.03125 75.65625 C 97.03125 76.628906 97.734375 77.421875 98.59375 77.421875 L 103.230469 77.421875 C 104.097656 77.421875 104.796875 76.628906 104.796875 75.65625 L 104.796875 53.519531 L 108.996094 53.519531 C 109.90625 50.273438 109.582031 47.320312 108.671875 44.773438 Z M 108.671875 44.773438 "/>
<path style=" stroke:none;fill-rule:nonzero;fill:rgb(79.215686%,79.215686%,74.117647%);fill-opacity:1;" d="M 103.222656 34.8125 L 100.910156 34.8125 L 104.707031 36.015625 C 104.496094 35.320312 103.917969 34.8125 103.222656 34.8125 Z M 103.222656 34.8125 "/>
<path style=" stroke:none;fill-rule:nonzero;fill:rgb(79.215686%,79.215686%,74.117647%);fill-opacity:1;" d="M 104.789062 38.378906 L 104.789062 36.574219 C 104.789062 36.382812 104.753906 36.195312 104.703125 36.015625 L 100.90625 34.8125 C 100.910156 34.8125 102.785156 36.101562 104.789062 38.378906 Z M 104.789062 38.378906 "/>
<path style=" stroke:none;fill-rule:nonzero;fill:rgb(79.215686%,79.215686%,74.117647%);fill-opacity:1;" d="M 114.976562 51.757812 L 114.976562 46.535156 C 114.976562 45.5625 114.273438 44.773438 113.414062 44.773438 L 108.671875 44.773438 C 109.582031 47.328125 109.910156 50.28125 108.996094 53.523438 L 113.414062 53.523438 C 114.273438 53.519531 114.976562 52.730469 114.976562 51.757812 Z M 114.976562 51.757812 "/>
<path style=" stroke:none;fill-rule:nonzero;fill:rgb(68.627451%,66.27451%,38.823529%);fill-opacity:1;" d="M 89.964844 67.585938 C 89.964844 50.863281 76.460938 37.304688 59.804688 37.304688 C 43.152344 37.304688 29.648438 50.863281 29.648438 67.585938 C 29.648438 84.3125 43.152344 97.867188 59.804688 97.867188 C 76.460938 97.867188 89.964844 84.3125 89.964844 67.585938 Z M 89.964844 67.585938 "/>
<path style=" stroke:none;fill-rule:nonzero;fill:rgb(99.607843%,98.823529%,90.980392%);fill-opacity:1;" d="M 44.15625 44.15625 C 45.03125 44.847656 43.898438 45.105469 42.691406 46.019531 C 33.0625 53.289062 33.921875 68.859375 34.652344 72.386719 C 35.109375 74.585938 34.511719 74.800781 32.472656 75.761719 C 32.109375 75.929688 31.753906 75.503906 31.628906 75.015625 C 31.015625 72.644531 30.695312 70.136719 30.695312 67.523438 C 30.695312 57.875 35.398438 49.320312 42.632812 44.027344 C 43.070312 43.699219 43.335938 43.664062 43.632812 43.859375 C 43.726562 43.914062 43.941406 43.980469 44.15625 44.15625 Z M 44.15625 44.15625 "/>
<path style=" stroke:none;fill-rule:nonzero;fill:rgb(99.607843%,98.823529%,90.980392%);fill-opacity:1;" d="M 68.378906 95.328125 C 73.441406 93.761719 78.351562 90.460938 81.8125 86.625 C 82.089844 86.035156 80.242188 87.761719 79.09375 88.34375 C 74.585938 90.617188 72.785156 90.554688 71.824219 91.4375 C 70.863281 92.3125 70.027344 93.273438 68.125 94.558594 C 67.109375 95.25 67.546875 95.660156 68.378906 95.328125 "/>
<path style=" stroke:none;fill-rule:nonzero;fill:rgb(99.607843%,98.823529%,90.980392%);fill-opacity:1;" d="M 66.058594 95.414062 C 72.289062 91.132812 73.710938 88.78125 75.832031 84.457031 C 76.3125 83.480469 77.15625 80.859375 76.113281 79.945312 C 75.316406 79.242188 71.214844 75.746094 70.378906 75.492188 C 69.539062 75.242188 69.398438 76.054688 68.28125 78.328125 C 65.542969 83.878906 58.277344 90.808594 51.117188 94.554688 C 50.523438 94.863281 50.820312 95.246094 51.457031 95.410156 C 54.101562 96.199219 56.902344 96.621094 59.800781 96.621094 C 61.390625 96.621094 62.960938 96.515625 63.726562 96.359375 C 64.476562 96.191406 65.328125 95.917969 66.058594 95.414062 Z M 66.058594 95.414062 "/>
<path style=" stroke:none;fill-rule:nonzero;fill:rgb(99.607843%,98.823529%,90.980392%);fill-opacity:1;" d="M 32.78125 76.207031 C 39.375 72.84375 43.445312 70.476562 45.542969 68 C 47.578125 65.589844 49.253906 66.148438 50.09375 66.398438 C 50.929688 66.648438 56.988281 68.195312 57.738281 68.945312 C 58.488281 69.695312 58.351562 71.03125 57.820312 71.976562 C 55.9375 75.320312 44.945312 84.402344 40.085938 86.429688 C 38.78125 86.96875 38.351562 87.132812 37.773438 86.5625 C 35.453125 83.929688 33.648438 80.941406 32.445312 77.65625 C 32.238281 76.945312 32.1875 76.511719 32.78125 76.207031 Z M 32.78125 76.207031 "/>
<path style=" stroke:none;fill-rule:nonzero;fill:rgb(99.607843%,98.823529%,90.980392%);fill-opacity:1;" d="M 50.65625 94.015625 C 61.582031 87.585938 66.6875 81.035156 68.398438 76.511719 C 68.78125 75.5 69.105469 74.632812 68.0625 73.710938 C 67.265625 73.007812 61.753906 70.347656 60.914062 70.09375 C 60.078125 69.84375 59.945312 69.550781 58.617188 71.707031 C 55.578125 76.617188 47.414062 83.898438 40.394531 87.257812 C 40.039062 87.429688 38.890625 87.804688 39.425781 88.304688 C 42.1875 91.007812 45.226562 93.066406 48.878906 94.507812 C 49.492188 94.726562 50.355469 94.1875 50.65625 94.015625 Z M 50.65625 94.015625 "/>
<path style=" stroke:none;fill-rule:nonzero;fill:rgb(99.607843%,98.823529%,90.980392%);fill-opacity:1;" d="M 84.199219 66.621094 C 76.21875 58.859375 60.542969 52.769531 49.546875 51.640625 C 47.75 51.453125 47.539062 52.398438 46.957031 53.652344 C 46.464844 54.707031 45.492188 58.875 45.515625 61.324219 C 45.527344 62.828125 45.445312 64.554688 47.261719 64.867188 C 54.714844 66.175781 68.539062 71.765625 74.898438 77.828125 C 76.789062 79.628906 77.429688 79.585938 79.101562 77.828125 C 81.117188 75.707031 83.625 72.867188 84.292969 71.613281 C 84.960938 70.351562 86.0625 68.4375 84.199219 66.621094 Z M 84.199219 66.621094 "/>
<path style=" stroke:none;fill-rule:nonzero;fill:rgb(99.607843%,98.823529%,90.980392%);fill-opacity:1;" d="M 84.902344 53.664062 C 77.824219 46.742188 70.25 43.242188 59.25 42.109375 C 57.453125 41.925781 55.53125 41.609375 53.773438 43.445312 C 52.859375 44.402344 49.261719 48.273438 49.34375 49.78125 C 49.425781 51.289062 51.539062 51.046875 55.046875 51.890625 C 62.289062 53.636719 74.265625 57.464844 82.417969 64.089844 C 86.3125 67.257812 86.242188 68.804688 87.058594 68.085938 C 87.84375 67.394531 88.710938 65.507812 88.675781 64 C 88.640625 62.585938 86.757812 55.488281 84.902344 53.664062 Z M 84.902344 53.664062 "/>
<path style=" stroke:none;fill-rule:nonzero;fill:rgb(99.607843%,98.823529%,90.980392%);fill-opacity:1;" d="M 52.910156 43.484375 C 50.070312 46.605469 43.9375 51.796875 44.617188 63.796875 C 44.734375 65.804688 48.296875 64.921875 43.375 69.125 C 42.332031 70.015625 38.898438 72.117188 37.359375 72.855469 C 35.230469 73.875 35.414062 73.136719 35.039062 70.253906 C 34.652344 67.273438 34.691406 51.503906 44.015625 45.863281 C 45.152344 45.171875 45.949219 44.824219 47.121094 44.367188 C 48.292969 43.910156 50.042969 43.195312 52.054688 42.570312 C 54.0625 41.941406 54.054688 42.226562 52.910156 43.484375 Z M 52.910156 43.484375 "/>
<path style=" stroke:none;fill-rule:nonzero;fill:rgb(99.607843%,98.823529%,90.980392%);fill-opacity:1;" d="M 88.882812 67.523438 C 88.882812 73.398438 87.105469 78.796875 84.105469 83.375 C 82.203125 86.238281 77.921875 88.6875 74.210938 89.679688 C 73.535156 89.859375 74.164062 89.078125 74.980469 87.714844 C 76.128906 85.796875 77.351562 82.746094 77.460938 81.367188 C 77.542969 80.367188 78.257812 80.203125 79.125 79.429688 C 82.042969 76.828125 86.6875 71.546875 88.320312 67.464844 C 88.484375 67.042969 88.984375 65.039062 88.882812 67.523438 Z M 88.882812 67.523438 "/>
<path style=" stroke:none;fill-rule:nonzero;fill:rgb(99.607843%,98.823529%,90.980392%);fill-opacity:1;" d="M 84.867188 52.515625 C 79.722656 44.015625 70.445312 38.429688 59.789062 38.429688 C 59.609375 38.429688 59.425781 38.429688 59.242188 38.4375 C 58 38.414062 57.65625 38.804688 57.109375 39.75 C 56.390625 41 56.203125 41.472656 57.109375 41.484375 C 60.257812 41.519531 72.429688 41.929688 83.066406 50.96875 C 83.492188 51.328125 85.148438 52.988281 84.867188 52.515625 Z M 84.867188 52.515625 "/>
<path style=" stroke:none;fill-rule:nonzero;fill:rgb(99.607843%,98.823529%,90.980392%);fill-opacity:1;" d="M 56.671875 39.3125 C 56.0625 40.742188 56.027344 41.359375 54.460938 41.519531 C 53.003906 41.664062 48.359375 43.132812 46.554688 43.992188 C 44.796875 44.828125 45.371094 44.484375 44.191406 43.652344 C 43.664062 43.28125 44.410156 42.8125 44.707031 42.640625 C 47.78125 40.796875 51.21875 39.480469 54.882812 38.847656 C 55.628906 38.726562 57.050781 38.429688 56.671875 39.3125 Z M 56.671875 39.3125 "/>
<path style=" stroke:none;fill-rule:nonzero;fill:rgb(93.333333%,91.372549%,73.333333%);fill-opacity:1;" d="M 35.671875 81.40625 C 36.71875 83.015625 37.253906 84 38.34375 84.578125 C 39.425781 85.164062 40.605469 84.785156 41.980469 83.953125 C 43.359375 83.117188 48.492188 79.875 52.628906 75.738281 C 55.386719 72.976562 53.5625 73.890625 52.363281 75.085938 C 50.917969 76.539062 43.183594 82.175781 40.761719 83.027344 C 38.921875 83.679688 37.648438 82.257812 36.75 80.917969 C 35.179688 78.5625 34.3125 79.3125 35.671875 81.40625 Z M 35.671875 81.40625 "/>
<path style=" stroke:none;fill-rule:nonzero;fill:rgb(93.333333%,91.372549%,73.333333%);fill-opacity:1;" d="M 46.035156 91.160156 C 46.667969 91.863281 47.101562 92.164062 48.1875 92.75 C 49.269531 93.335938 50.671875 92.589844 51.613281 92.058594 C 53.023438 91.265625 57.730469 87.996094 61.816406 83.800781 C 63.386719 82.1875 62.671875 82.289062 61.480469 83.484375 C 60.035156 84.9375 54.320312 89.671875 50.789062 90.9375 C 48.953125 91.59375 47.917969 91.804688 46.746094 90.691406 C 45.601562 89.621094 45.132812 90.15625 46.035156 91.160156 Z M 46.035156 91.160156 "/>
<path style=" stroke:none;fill-rule:nonzero;fill:rgb(78.431373%,77.254902%,61.960784%);fill-opacity:1;" d="M 37.804688 55.027344 C 36.710938 57.855469 35.195312 63.28125 36.175781 70.5625 C 36.410156 72.320312 37.242188 71.578125 37.953125 71.242188 C 38.660156 70.910156 41.3125 68.710938 37.726562 69.921875 C 36.078125 70.476562 36.53125 58.816406 38.203125 54.984375 C 39.15625 52.78125 38.328125 53.679688 37.804688 55.027344 Z M 37.804688 55.027344 "/>
<path style=" stroke:none;fill-rule:nonzero;fill:rgb(93.333333%,91.372549%,73.333333%);fill-opacity:1;" d="M 60.078125 95.4375 C 63.960938 96.148438 67.628906 92.90625 69.925781 90.351562 C 71.460938 88.640625 70.875 88.789062 69.550781 90.101562 C 67.945312 91.695312 65.054688 94.542969 60.953125 94.078125 C 58.40625 93.789062 57.617188 94.984375 60.078125 95.4375 Z M 60.078125 95.4375 "/>
<path style=" stroke:none;fill-rule:nonzero;fill:rgb(78.431373%,77.254902%,61.960784%);fill-opacity:1;" d="M 46.863281 58.625 C 46.09375 60.773438 46.160156 62.585938 49.675781 63.554688 C 54.222656 64.8125 63.398438 67.570312 71.882812 73.078125 C 76.460938 76.046875 74.332031 74.695312 72.164062 72.703125 C 67.148438 68.09375 52.261719 63.410156 50.0625 62.328125 C 48.921875 61.765625 46.890625 61.296875 47.976562 58.703125 C 48.539062 57.359375 47.59375 56.566406 46.863281 58.625 Z M 46.863281 58.625 "/>
<path style=" stroke:none;fill-rule:nonzero;fill:rgb(78.431373%,77.254902%,61.960784%);fill-opacity:1;" d="M 53.917969 46.023438 C 52.65625 47.753906 52.558594 49.644531 56.109375 50.472656 C 61.230469 51.664062 70.6875 54.554688 79.304688 59.835938 C 79.609375 60.023438 79.714844 59.730469 79.558594 59.585938 C 74.5625 54.953125 60.410156 50.472656 57.082031 49.472656 C 54.691406 48.75 53.976562 48.679688 54.949219 46.367188 C 55.511719 45.015625 55.207031 44.261719 53.917969 46.023438 Z M 53.917969 46.023438 "/>
<path style=" stroke:none;fill-rule:nonzero;fill:rgb(93.333333%,91.372549%,73.333333%);fill-opacity:1;" d="M 78.578125 83.007812 C 78.738281 82.535156 78.472656 82.582031 78.265625 83.066406 C 77.613281 84.550781 77.042969 85.625 76.675781 86.640625 C 76.453125 87.257812 77.007812 87.527344 77.460938 87.363281 C 78.664062 86.929688 79.546875 86.488281 80.414062 85.921875 C 80.609375 85.792969 80.789062 85.515625 80.335938 85.75 C 79.421875 86.21875 77.777344 87.027344 77.578125 86.242188 C 77.449219 85.769531 78.285156 83.898438 78.578125 83.007812 Z M 78.578125 83.007812 "/>
<use xlink:href="#surface5" mask="url(#mask0)"/>
</g>
</svg>
